<?xml version="1.0" standalone="no"?>
<!DOCTYPE svg PUBLIC "-//W3C//DTD SVG 20010904//EN"
 "http://www.w3.org/TR/2001/REC-SVG-20010904/DTD/svg10.dtd">
<svg version="1.0" xmlns="http://www.w3.org/2000/svg"
 width="619.000000pt" height="878.981270pt" viewBox="0 0 619.000000 878.981270"
 preserveAspectRatio="xMidYMid meet">
<metadata>
Created by potrace 1.12, written by Peter Selinger 2001-2015
</metadata>
<g transform="translate(-0.000000,878.962565) scale(0.100000,-0.100000)"
fill="#000000" stroke="none">
<path d="M3452 8778 c-7 -7 -12 -16 -12 -21 0 -6 -8 -16 -17 -23 -17 -12 -17
-14 4 -34 16 -14 30 -19 48 -14 15 4 25 2 25 -5 0 -17 21 -13 40 7 14 14 15
24 7 52 -5 19 -14 38 -21 42 -17 12 -61 9 -74 -4z"/>
<path d="M4553 8783 c-7 -2 -13 -13 -13 -22 0 -10 -9 -26 -20 -36 -11 -10 -20
-24 -20 -32 0 -15 -21 -55 -33 -64 -5 -3 -7 -21 -5 -40 3 -29 7 -34 31 -37 16
-2 36 -1 45 3 28 10 26 14 39 -68 l6 -37 -57 6 c-39 5 -56 3 -56 -5 0 -15 -27
-14 -34 2 -3 8 -9 6 -20 -8 -13 -15 -26 -18 -62 -16 -25 1 -51 -3 -59 -9 -8
-6 -29 -9 -48 -6 -24 4 -39 1 -47 -9 -9 -11 -31 -14 -92 -11 -44 1 -83 7 -86
12 -24 36 -147 43 -212 14 -38 -18 -45 -26 -46 -51 -1 -30 13 -39 61 -39 50 0
216 -9 270 -16 33 -3 86 -7 117 -8 31 -1 59 -4 62 -7 3 -3 29 -2 58 2 29 3 60
5 68 4 8 -2 56 -6 105 -10 50 -3 149 -13 220 -20 150 -16 345 -18 382 -4 17 6
30 6 38 -1 7 -5 23 -10 36 -10 13 1 53 -2 89 -6 36 -4 79 -7 95 -7 68 -1 211
6 219 11 25 14 143 17 266 8 47 -3 142 -9 213 -12 l127 -5 0 202 c0 182 -2
200 -16 188 -8 -7 -13 -21 -11 -31 3 -10 1 -16 -4 -12 -5 3 -9 -2 -9 -11 0 -8
7 -18 15 -22 13 -5 13 -8 -5 -20 -17 -12 -19 -18 -9 -29 10 -12 8 -17 -7 -28
-10 -8 -24 -12 -31 -9 -7 3 -19 0 -27 -6 -22 -18 -174 -30 -198 -15 -14 9 -26
47 -33 100 -3 25 -8 51 -11 56 -3 5 1 17 9 26 9 9 18 39 21 67 4 27 9 58 12
67 5 17 -28 18 -658 17 -365 0 -669 -3 -675 -6z m96 -279 c-6 -8 -17 -14 -23
-13 -7 0 -6 2 2 6 6 2 12 11 12 19 0 9 5 12 10 9 8 -5 7 -11 -1 -21z"/>
<path d="M625 8641 c-3 -6 -12 -8 -19 -5 -32 12 -176 -88 -176 -122 0 -20 19
-27 35 -14 12 10 15 10 15 0 0 -20 141 -6 157 16 11 15 13 15 13 2 0 -10 13
-18 35 -22 19 -4 35 -11 35 -15 0 -13 53 -21 165 -27 55 -3 116 -9 136 -15 20
-5 44 -7 52 -3 9 3 26 0 38 -7 13 -7 42 -13 64 -15 127 -10 241 -16 320 -19
50 -1 98 -5 108 -10 9 -4 23 -3 30 2 14 10 80 8 227 -6 117 -11 729 -9 747 2
7 5 21 4 31 -2 10 -5 78 -8 157 -5 78 2 156 -1 177 -7 25 -6 44 -6 57 0 10 6
22 7 25 3 12 -11 140 -1 148 12 5 7 8 5 8 -6 0 -10 5 -18 11 -18 6 0 9 9 6 20
-6 25 8 26 22 3 11 -20 16 -17 25 13 5 18 1 24 -24 32 -16 6 -30 15 -30 21 0
6 -16 26 -37 46 -39 37 -76 45 -116 23 -55 -29 -141 -36 -167 -13 -9 8 -22 15
-28 15 -7 0 -12 8 -12 18 -1 28 -28 58 -41 45 -6 -6 -18 -9 -25 -6 -8 3 -21 0
-29 -7 -8 -7 -22 -10 -30 -6 -8 3 -15 1 -15 -4 0 -13 -127 -13 -135 -1 -3 6
-13 10 -23 9 -9 0 -38 3 -64 7 -43 7 -48 6 -48 -11 -1 -18 -1 -18 -14 -1 -7 9
-22 17 -34 17 -11 0 -42 9 -68 20 -26 11 -49 18 -52 15 -4 -3 4 -8 16 -12 12
-3 22 -9 22 -14 0 -15 -21 -21 -34 -10 -16 13 -118 4 -127 -11 -4 -6 -9 -5
-12 3 -4 10 -8 11 -14 3 -4 -6 -19 -10 -33 -9 -14 1 -30 -1 -36 -6 -11 -9 -69
-6 -97 6 -10 4 -31 5 -47 1 -17 -3 -30 -2 -30 3 0 9 -76 4 -159 -10 -37 -6
-58 -5 -67 2 -8 6 -24 9 -36 6 -13 -3 -41 1 -62 8 -22 8 -43 12 -47 9 -7 -4
-67 -8 -299 -19 -108 -6 -100 -6 -136 -1 -17 2 -40 8 -50 14 -11 5 -52 9 -92
8 -41 -1 -76 2 -78 6 -3 5 -22 5 -43 2 -24 -4 -41 -2 -45 5 -4 6 -16 11 -27
11 -10 0 -19 5 -19 11 0 7 -12 9 -34 5 -24 -5 -39 -2 -49 9 -9 9 -18 11 -22 6z"/>
<path d="M3375 8440 c-3 -5 3 -10 14 -10 12 0 21 -6 21 -14 0 -17 -53 -32 -58
-17 -4 11 -42 -8 -42 -21 0 -14 76 -8 108 8 37 18 39 24 12 47 -23 19 -46 22
-55 7z"/>
<path d="M3286 8405 c-8 -23 -8 -35 3 -35 13 0 23 32 13 42 -6 6 -12 3 -16 -7z"/>
<path d="M3181 7924 c-16 -12 -35 -15 -64 -11 -31 4 -50 0 -72 -14 -47 -30
-59 -33 -63 -21 -2 7 -17 12 -34 12 -26 0 -29 -2 -18 -15 7 -9 19 -14 26 -11
7 3 15 -2 18 -11 4 -11 10 -12 19 -5 15 12 134 -1 150 -17 17 -17 -6 -34 -47
-35 -46 -2 -63 -18 -42 -39 9 -9 16 -24 16 -33 0 -14 -3 -15 -12 -6 -16 16
-28 15 -28 -3 0 -8 4 -15 10 -15 5 0 7 -6 4 -14 -6 -15 -53 -28 -68 -18 -19
11 -116 7 -116 -5 0 -14 -56 -7 -77 10 -23 17 -15 38 11 31 16 -4 25 -1 30 11
3 9 11 13 16 10 12 -7 40 12 40 27 0 5 -18 7 -39 4 -28 -3 -41 -1 -45 10 -7
19 -75 19 -82 -1 -4 -8 -12 -15 -19 -15 -7 0 -15 -6 -18 -13 -3 -7 -21 -12
-43 -12 -41 0 -41 1 -32 60 2 16 -3 21 -28 23 -19 2 -36 -3 -44 -12 -7 -9 -19
-16 -26 -16 -8 0 -14 -4 -14 -9 0 -14 -61 -42 -74 -34 -6 4 -19 6 -28 5 -10
-2 -18 1 -18 7 0 15 51 38 73 34 9 -3 17 1 17 7 0 6 17 18 37 26 50 21 68 26
138 34 6 0 1 7 -9 15 -19 14 -19 15 6 15 14 0 38 6 52 14 23 12 24 15 10 20
-17 6 -118 -19 -139 -35 -6 -4 -32 -10 -59 -14 -56 -6 -84 -19 -109 -52 -25
-32 -80 -58 -150 -73 -31 -6 -55 -16 -52 -21 4 -5 0 -9 -8 -9 -18 0 -75 -28
-82 -41 -4 -5 -16 -9 -27 -9 -52 0 -164 -77 -181 -124 -5 -11 -13 -16 -23 -12
-17 7 -61 -20 -111 -68 -57 -56 -105 -96 -113 -96 -4 0 -10 -9 -13 -20 -3 -11
-14 -20 -24 -20 -30 0 -105 -62 -100 -82 3 -11 0 -15 -10 -11 -20 8 -43 -27
-36 -55 6 -24 -14 -60 -57 -105 -15 -16 -36 -46 -45 -68 -10 -21 -24 -39 -32
-39 -7 0 -13 -9 -13 -20 0 -12 -9 -39 -21 -61 -23 -47 -18 -89 7 -55 10 15 17
17 25 9 15 -15 3 -33 -22 -33 -10 0 -19 -4 -19 -8 0 -5 -16 -27 -35 -49 -27
-32 -36 -53 -41 -97 -5 -37 -11 -56 -20 -56 -26 0 -14 -28 23 -59 21 -17 31
-31 23 -31 -9 0 -28 11 -43 25 -26 24 -27 25 -27 5 0 -11 -4 -20 -9 -20 -5 0
-11 -9 -14 -20 -4 -17 -2 -20 14 -15 13 4 19 2 19 -9 0 -9 -5 -16 -11 -16 -6
0 -8 -9 -3 -22 4 -13 6 -27 6 -33 -1 -5 -4 -24 -6 -42 -2 -17 -6 -35 -9 -40
-3 -4 -14 -64 -26 -133 -16 -96 -18 -134 -11 -160 10 -35 4 -116 -9 -125 -16
-9 -78 -18 -118 -16 -54 2 -104 24 -121 50 -7 12 -19 21 -27 21 -8 0 -15 4
-15 10 0 5 -17 16 -37 25 -21 9 -45 20 -53 24 -8 5 -27 4 -41 -1 -30 -10 -45
-46 -23 -55 8 -3 14 -13 14 -23 0 -26 39 -47 102 -55 31 -4 87 -17 124 -30 60
-20 70 -27 75 -52 4 -15 7 -25 8 -21 0 4 17 0 36 -8 20 -8 40 -12 44 -9 21 12
34 -25 25 -73 -9 -42 -6 -95 10 -232 5 -44 39 -89 77 -102 8 -3 10 -9 5 -14
-5 -5 -11 -3 -13 4 -10 26 -34 -40 -27 -73 7 -41 58 -104 72 -90 15 16 26 59
13 51 -6 -4 -11 -1 -11 8 0 26 19 28 26 1 3 -14 12 -25 20 -25 7 0 16 -12 19
-27 4 -16 10 -35 14 -43 17 -32 23 -118 10 -141 -15 -30 -14 -90 3 -100 11 -7
10 -13 0 -30 -11 -17 -11 -23 -2 -29 8 -5 13 -55 15 -163 1 -85 5 -160 9 -165
8 -13 17 -166 20 -327 1 -70 7 -129 14 -142 7 -12 12 -38 12 -59 0 -20 5 -55
12 -77 10 -32 10 -41 0 -45 -17 -5 -15 -67 4 -103 8 -17 14 -43 13 -57 -1 -15
1 -47 6 -72 5 -25 8 -53 6 -63 -1 -10 10 -39 25 -65 29 -50 47 -119 33 -128
-5 -3 -9 -10 -9 -16 0 -7 5 -7 14 1 25 21 46 2 46 -40 0 -21 1 -42 1 -46 1 -5
-15 -16 -35 -26 -20 -9 -42 -26 -48 -37 -7 -11 -17 -20 -21 -20 -14 0 -107
-82 -102 -91 3 -4 -5 -16 -19 -26 -13 -10 -26 -28 -30 -40 -4 -12 -12 -24 -19
-26 -7 -2 -4 -3 6 -2 27 5 21 -40 -8 -70 -14 -14 -30 -25 -35 -25 -5 0 -16
-13 -25 -30 -9 -16 -20 -30 -26 -30 -7 0 -9 -10 -5 -24 4 -18 0 -29 -18 -43
-13 -11 -26 -30 -28 -44 -2 -14 -14 -30 -30 -37 -27 -14 -37 -34 -44 -87 -10
-74 -16 -95 -25 -95 -7 0 -8 -12 -4 -30 4 -20 3 -30 -5 -30 -8 0 -10 -8 -7
-21 3 -12 2 -32 -3 -45 -7 -19 -6 -24 5 -24 8 0 15 -5 15 -12 0 -12 -17 -68
-31 -103 -4 -11 -10 -42 -12 -70 -3 -27 -12 -74 -22 -104 -9 -29 -14 -59 -11
-66 2 -7 -11 -44 -30 -81 -18 -38 -34 -70 -34 -72 0 -1 13 11 29 27 49 50 183
250 175 263 -4 7 -3 8 4 4 7 -4 12 -1 12 8 0 8 12 27 26 41 14 14 23 29 20 32
-3 4 -15 -3 -26 -15 -26 -27 -25 -27 -28 3 -1 14 3 25 9 25 6 0 9 8 8 17 -5
32 12 97 38 148 15 28 29 56 33 64 3 8 12 17 20 19 10 4 12 -8 7 -54 -8 -73 9
-52 23 29 6 28 21 93 34 142 13 50 20 92 15 93 -5 2 -3 16 5 30 8 15 22 47 32
72 47 119 251 348 300 338 13 -2 9 -13 -20 -52 -58 -75 -145 -236 -146 -266 0
-9 -4 -20 -8 -25 -12 -14 -55 -136 -50 -141 3 -2 28 47 57 109 61 130 84 175
128 248 51 85 75 111 96 103 11 -4 16 -13 12 -22 -10 -27 22 -62 58 -62 24 0
38 -8 58 -33 30 -37 39 -74 69 -287 22 -153 36 -235 70 -390 12 -52 27 -144
36 -205 18 -135 23 -163 34 -170 4 -2 7 30 6 72 0 45 3 78 9 80 13 4 44 -126
52 -218 5 -58 10 -71 30 -84 20 -13 23 -22 19 -50 -5 -31 -4 -34 16 -32 18 2
28 -9 52 -57 17 -33 30 -74 30 -92 0 -18 4 -30 8 -28 4 3 8 -3 8 -13 0 -10 11
-39 25 -66 14 -26 22 -47 18 -47 -4 0 3 -7 15 -16 15 -10 21 -22 17 -34 -3
-10 -1 -21 5 -25 6 -3 8 -11 4 -16 -3 -5 -14 1 -25 15 -23 29 -24 40 -4 32 8
-3 15 0 15 5 0 6 -9 9 -19 6 -14 -3 -28 7 -50 38 -17 24 -31 46 -31 50 0 4
-15 28 -33 54 -65 89 -150 276 -145 318 3 28 3 28 -52 26 -79 -4 -235 -38
-405 -89 -110 -33 -247 -61 -336 -69 -111 -9 -114 -10 -115 -42 -1 -15 -13
-62 -28 -103 -14 -41 -26 -79 -26 -85 0 -5 18 -19 40 -29 22 -11 40 -23 40
-28 0 -4 32 -39 71 -77 53 -51 80 -70 107 -75 52 -8 182 -7 182 2 0 10 161 14
174 4 11 -9 97 -36 151 -48 17 -4 55 -8 85 -10 74 -2 103 -13 97 -34 -2 -9 10
-43 28 -76 30 -56 34 -59 74 -62 23 -2 65 4 93 14 28 9 78 18 110 20 71 3 92
-12 82 -60 -3 -17 -7 -33 -7 -36 -3 -17 20 -57 44 -78 16 -13 27 -27 24 -32
-16 -25 69 -79 113 -71 6 1 12 -2 12 -7 0 -5 11 -14 24 -20 26 -12 86 -92 86
-115 0 -19 24 -29 37 -16 13 13 67 -9 110 -45 21 -18 33 -22 35 -14 4 10 10
10 32 0 26 -11 30 -10 59 21 69 72 147 176 147 196 0 4 13 27 29 52 16 24 33
56 36 72 6 23 4 27 -14 27 -12 0 -21 -6 -21 -15 0 -8 -9 -19 -20 -25 -11 -6
-20 -7 -19 -3 4 21 -2 33 -16 33 -8 0 -15 -7 -15 -15 0 -8 -7 -15 -15 -15 -8
0 -15 -4 -15 -8 0 -4 -8 -8 -17 -9 -16 -1 -73 63 -73 82 0 3 -11 21 -25 39
-14 18 -25 38 -25 44 0 7 -7 12 -15 12 -8 0 -12 6 -9 13 2 7 -6 25 -18 39 -13
13 -34 46 -48 73 -14 26 -32 52 -41 58 -13 8 -14 19 -8 60 5 27 6 54 3 59 -9
15 17 9 34 -8 14 -15 16 -15 24 5 6 18 11 20 27 12 10 -6 21 -17 25 -26 6 -17
36 -21 36 -5 0 6 8 5 20 -2 11 -7 20 -21 20 -30 0 -12 8 -18 24 -18 16 0 23
-5 22 -17 0 -10 6 -18 16 -18 9 0 39 -21 65 -47 94 -91 100 -100 102 -147 0
-25 6 -48 12 -52 7 -4 8 -19 4 -38 -8 -39 5 -40 27 -2 19 35 73 69 146 95 l52
18 19 -23 c17 -21 21 -22 47 -10 34 17 64 19 64 6 0 -6 -10 -10 -22 -10 -13 0
-32 -11 -42 -23 -10 -13 -45 -43 -76 -65 -121 -89 -259 -218 -395 -371 -60
-67 -72 -87 -85 -140 -8 -33 -18 -66 -22 -71 -3 -6 -9 -28 -13 -50 -4 -22 -11
-53 -16 -70 -11 -37 -20 -103 -23 -175 -2 -30 -4 -59 -6 -65 -7 -28 2 -35 45
-35 38 0 45 3 45 20 0 11 -4 20 -9 20 -16 0 -21 31 -10 52 6 12 25 33 41 46
20 17 28 31 25 44 -4 15 -1 18 15 12 13 -4 18 -2 14 4 -3 6 -2 13 4 17 5 3 10
15 10 26 0 10 7 19 15 19 17 0 20 11 6 26 -12 12 5 54 22 54 8 0 32 18 53 39
24 26 53 43 80 50 24 6 45 15 48 20 4 5 27 19 54 32 26 12 65 34 87 49 122 82
186 114 197 97 5 -8 8 -7 8 5 0 22 47 35 63 18 9 -10 9 -11 0 -6 -26 15 -12
-14 25 -50 23 -23 32 -38 25 -41 -7 -3 -13 -18 -13 -34 0 -16 -5 -29 -11 -29
-8 0 -7 -6 2 -17 12 -14 12 -16 -1 -11 -17 6 -50 -8 -50 -22 0 -5 12 -10 27
-12 25 -3 28 -9 39 -63 10 -50 10 -63 -2 -76 -18 -20 -18 -29 3 -44 13 -10 15
-16 6 -26 -13 -16 -14 -107 -2 -115 11 -7 -1 -34 -15 -34 -14 0 -40 -40 -30
-48 4 -4 9 -1 11 6 6 17 33 15 33 -2 0 -8 -8 -17 -17 -19 -10 -3 13 -5 50 -6
50 -1 73 3 84 15 13 13 14 17 3 24 -10 6 -12 25 -7 73 4 40 2 68 -5 75 -8 8
-6 15 6 27 9 9 16 21 16 27 0 5 11 19 25 30 29 23 25 38 -11 38 -13 0 -24 4
-24 10 0 5 7 7 15 4 11 -5 15 1 15 19 0 14 7 32 15 41 13 13 13 15 -6 18 -34
5 -47 33 -26 56 10 11 13 22 8 28 -15 15 -16 58 -1 84 15 27 17 31 19 55 2 22
20 18 30 -7 5 -15 10 -18 15 -9 5 7 5 15 2 18 -10 10 15 33 36 33 14 0 18 5
14 15 -3 9 0 15 8 15 7 0 19 7 26 15 7 9 28 22 46 31 20 9 34 24 36 37 2 14
10 21 21 21 9 -1 17 5 17 13 0 8 14 27 31 43 17 15 33 40 35 55 4 37 22 55 34
35 5 -8 10 -11 10 -6 0 5 -7 17 -16 27 -13 15 -14 24 -4 52 6 20 17 38 25 41
8 3 15 13 15 21 0 11 6 15 19 10 13 -4 20 0 24 16 5 18 8 20 19 8 23 -23 29
-49 13 -49 -8 0 -15 -7 -15 -16 0 -8 -4 -13 -8 -10 -4 2 -14 1 -22 -5 -11 -6
-7 -9 15 -9 40 1 61 19 60 53 -1 15 3 27 8 27 4 0 5 5 2 10 -8 12 -3 13 30 0
14 -5 30 -21 35 -35 5 -14 16 -25 25 -25 21 0 19 16 -5 33 -22 15 -19 42 6 51
8 3 14 17 14 32 0 19 -4 25 -15 20 -13 -4 -14 -2 -5 14 8 15 8 20 -2 21 -7 1
3 5 22 9 26 6 39 5 51 -6 14 -12 18 -13 22 -2 4 10 6 10 6 1 1 -16 33 -17 48
-2 12 12 33 5 33 -11 0 -4 -13 -13 -30 -19 -30 -10 -38 -25 -20 -36 19 -12
114 -14 127 -3 7 6 22 8 33 5 11 -3 20 -1 20 4 0 5 7 9 15 9 13 0 12 -4 -4
-21 -22 -24 -46 -29 -136 -33 -89 -4 -133 -23 -90 -40 19 -7 19 -26 0 -26 -8
0 -17 -11 -21 -25 -4 -18 -13 -25 -29 -25 -13 0 -26 6 -28 13 -4 8 -6 9 -6 0
-1 -11 7 -20 44 -51 12 -11 13 -17 5 -27 -7 -8 -9 -23 -5 -35 4 -13 0 -31 -10
-46 -17 -26 -13 -44 11 -44 8 0 14 -7 14 -16 0 -11 -6 -14 -22 -8 -13 4 -26
12 -30 18 -5 7 -8 4 -8 -6 0 -17 -10 -22 -37 -19 -7 1 -13 -5 -13 -14 0 -17
16 -20 25 -5 7 12 36 1 52 -19 17 -21 16 -36 0 -22 -20 16 -28 1 -12 -22 20
-29 0 -57 -45 -58 -31 -2 -32 -2 -7 -6 23 -4 26 -7 16 -19 -9 -11 -7 -14 10
-14 28 0 27 -10 -6 -36 l-28 -22 24 -19 c23 -19 23 -20 7 -52 -16 -30 -16 -35
-2 -56 20 -31 20 -51 1 -59 -13 -4 -14 -10 -5 -26 6 -11 18 -20 26 -20 10 0
14 -6 11 -14 -3 -7 0 -19 6 -25 9 -9 6 -16 -13 -31 -21 -16 -22 -20 -10 -35
17 -21 -1 -35 -34 -28 -21 5 -21 5 -1 -10 10 -8 26 -13 35 -10 9 3 11 1 5 -4
-18 -14 -13 -57 9 -75 l21 -19 -22 -15 c-26 -19 -30 -44 -8 -44 8 0 15 7 15
15 0 19 19 19 26 0 5 -11 23 -15 77 -15 64 0 69 1 51 15 -17 13 -17 14 -1 15
11 0 17 8 17 23 1 20 2 20 11 4 5 -9 7 -22 4 -27 -3 -6 -2 -10 4 -10 6 0 18
14 26 31 16 29 15 31 -4 36 -23 6 -27 18 -10 29 9 5 69 -48 69 -62 0 -3 -7
-16 -16 -29 l-16 -25 37 0 c31 0 35 3 30 19 -3 10 -1 31 5 46 6 16 11 48 12
72 0 36 4 43 16 38 8 -3 20 0 25 7 6 9 7 6 4 -10 -4 -16 -2 -22 7 -19 31 12
36 -10 12 -46 -14 -20 -21 -37 -15 -37 5 0 19 -16 30 -35 l21 -35 373 0 372 0
17 43 c9 23 16 48 16 55 0 7 4 12 8 12 5 0 8 15 8 33 0 17 4 41 9 51 7 15 5
17 -6 11 -11 -7 -12 -6 -2 6 7 9 14 33 17 55 2 21 7 47 11 57 5 12 2 17 -10
17 -9 0 -19 -9 -22 -20 -6 -24 -28 -27 -37 -5 -3 8 -3 29 1 45 6 31 -12 43
-23 15 -4 -8 -10 -15 -14 -15 -12 0 -19 39 -9 46 14 8 11 24 -5 24 -10 0 -14
9 -13 27 1 20 -3 28 -17 31 -15 3 -17 0 -11 -14 17 -43 17 -54 1 -54 -12 0
-16 7 -14 23 2 13 -2 21 -9 19 -7 -1 -13 2 -13 8 0 5 4 10 9 10 5 0 11 9 14
21 4 16 3 18 -9 8 -11 -9 -14 -6 -16 17 0 16 -1 37 0 47 1 9 -3 17 -8 17 -19
0 -10 32 10 37 14 4 19 11 15 23 -3 9 3 24 15 35 11 10 17 21 15 25 -3 4 2 10
10 14 8 3 15 1 15 -4 0 -6 5 -10 10 -10 7 0 7 6 1 19 -7 13 -6 24 3 36 13 18
14 18 25 -3 6 -12 18 -22 26 -22 8 0 15 -7 15 -15 0 -8 5 -15 10 -15 6 0 8
-11 4 -25 -5 -20 -3 -24 10 -19 9 3 16 10 16 14 0 5 10 10 23 12 24 3 26 34 2
53 -20 16 -65 93 -66 112 0 14 -2 13 -9 -5 -5 -12 -7 -29 -4 -37 4 -10 0 -15
-11 -15 -15 0 -17 7 -12 40 4 30 2 40 -9 40 -21 0 -17 14 9 25 19 9 22 16 19
53 -2 24 1 42 7 42 6 0 8 -7 5 -15 -4 -8 -1 -15 5 -15 6 0 11 7 11 15 0 8 5
24 12 34 6 10 8 26 4 36 -6 17 -8 17 -28 -1 -21 -19 -21 -19 -14 6 5 14 12 52
16 85 14 110 44 217 67 246 15 18 18 59 4 59 -5 0 -15 -10 -23 -22 -14 -21
-15 -21 -15 13 0 19 4 40 10 47 12 16 17 81 5 88 -4 3 -4 14 2 24 5 10 10 30
10 44 0 27 15 36 23 14 6 -21 37 11 37 38 0 27 0 27 -35 14 -30 -12 -38 0 -39
63 -1 35 -5 42 -31 51 -42 16 -75 39 -75 53 0 19 -65 16 -84 -3 -9 -8 -14 -20
-11 -25 4 -5 1 -9 -5 -9 -7 0 -9 -8 -5 -19 3 -12 0 -21 -10 -25 -13 -5 -14
-10 -4 -28 9 -16 9 -23 0 -26 -6 -2 -11 -9 -11 -16 0 -6 -9 -19 -20 -29 -25
-21 -25 -34 -1 -42 24 -7 33 -46 29 -124 -2 -40 -7 -61 -15 -61 -16 0 -17 -12
-2 -27 8 -8 5 -16 -11 -31 -18 -17 -20 -24 -10 -41 8 -16 8 -21 -1 -19 -7 2
-16 -13 -20 -32 -9 -41 -50 -80 -85 -80 -13 0 -24 -4 -24 -8 0 -18 14 -21 41
-7 15 8 35 15 44 15 22 0 18 -21 -5 -27 -15 -4 -19 -11 -15 -24 4 -12 2 -19
-7 -19 -9 0 -12 -15 -11 -55 1 -30 -3 -57 -8 -60 -5 -4 -9 -16 -9 -29 0 -12
-7 -31 -15 -42 -8 -10 -15 -35 -15 -55 0 -53 -11 -100 -22 -93 -5 3 -6 14 -3
23 3 10 -2 47 -11 82 -9 35 -18 81 -20 102 -1 20 -6 42 -9 47 -3 6 -2 10 4 10
13 0 3 29 -17 53 -12 13 -13 20 -4 29 8 8 4 20 -14 47 -13 20 -24 50 -24 69 0
18 -7 49 -16 70 -8 20 -17 55 -20 77 -6 61 -20 141 -44 245 -12 52 -21 103
-21 112 0 10 -4 18 -10 18 -5 0 -9 10 -9 23 0 12 -9 37 -20 55 -11 18 -20 41
-20 52 0 19 -34 79 -65 113 -9 10 -13 22 -10 27 4 6 -3 23 -14 39 -31 43 -26
54 29 74 28 10 50 23 50 29 0 6 -13 26 -30 44 l-30 34 21 21 c11 11 24 31 30
46 9 24 1 43 -31 73 -3 3 -12 23 -19 46 -12 36 -62 104 -77 104 -3 0 -13 -4
-23 -9 -10 -6 -23 -6 -31 -1 -12 7 -10 11 8 17 23 9 23 9 4 27 -13 11 -22 14
-27 7 -3 -6 -11 -11 -17 -11 -7 0 -6 5 1 14 16 19 -4 32 -24 16 -11 -9 -12 -7
-8 9 4 15 1 21 -11 21 -10 0 -16 8 -16 21 0 12 -11 42 -24 68 -13 25 -27 58
-30 74 -4 15 -13 27 -21 27 -8 0 -15 9 -15 19 0 11 -5 21 -11 23 -10 3 -56 78
-94 153 -48 94 -151 215 -182 215 -10 0 -11 5 -4 18 6 11 6 24 0 35 -8 13 -5
25 9 45 11 15 24 55 30 88 6 34 22 84 36 111 24 48 34 105 41 228 1 33 6 74 9
90 13 61 16 82 26 158 10 79 34 137 57 137 12 0 73 81 73 98 0 6 96 10 250 10
137 0 253 2 257 5 4 2 58 3 118 2 63 -2 115 1 122 7 7 5 17 7 23 3 5 -3 13 0
16 8 3 9 19 15 40 15 40 0 47 5 49 31 1 11 -8 24 -22 30 -13 6 -23 17 -23 26
0 26 -29 16 -75 -26 -25 -23 -51 -39 -58 -36 -7 3 -32 2 -55 -3 -23 -4 -39 -4
-37 0 7 11 -124 18 -267 15 -71 -2 -128 0 -128 4 0 3 -19 12 -42 19 -105 32
-107 35 -87 122 5 25 11 52 12 60 2 9 6 21 11 28 4 7 10 53 13 104 5 68 3 89
-5 84 -7 -4 -12 -17 -12 -30 0 -29 -30 -119 -38 -111 -3 3 -16 -4 -28 -16 -17
-15 -24 -17 -30 -8 -4 7 -2 15 4 17 14 4 45 72 38 80 -3 2 2 18 10 34 11 22
13 33 5 41 -16 16 -14 37 3 31 10 -4 13 2 10 23 -2 15 -1 20 2 11 11 -36 26
-18 20 25 -5 39 -5 40 5 10 15 -52 27 -39 27 31 0 60 10 149 33 301 6 39 12
81 14 95 2 13 -8 46 -21 72 -13 26 -24 55 -24 64 0 25 70 160 83 163 38 7 107
13 140 13 20 0 37 4 37 9 0 5 7 9 15 9 8 0 15 -7 15 -15 0 -16 15 -20 24 -7 3
5 18 7 34 4 27 -4 29 -2 25 21 -4 20 -16 29 -56 42 -28 9 -58 26 -65 37 -10
14 -17 17 -25 9 -18 -18 -47 17 -47 56 0 18 -5 33 -11 33 -7 0 -9 11 -5 30 3
17 1 30 -4 30 -6 0 -6 9 -2 23 5 12 6 60 2 107 -3 47 -2 87 2 88 5 2 8 16 8
32 0 15 6 33 14 39 25 21 27 68 4 114 -12 23 -25 43 -29 45 -5 2 -5 10 -2 18
6 17 -14 63 -35 79 -7 6 -16 29 -19 51 -5 36 -3 42 17 47 23 6 19 27 -6 27 -8
0 -14 6 -14 14 0 17 54 59 63 49 4 -3 9 3 13 13 3 10 10 28 16 40 5 11 8 24 7
30 -4 21 3 35 46 93 48 64 91 91 150 91 36 0 137 21 145 29 17 20 93 51 122
51 19 0 39 5 46 12 9 9 12 8 12 -7 0 -14 3 -16 11 -8 9 9 6 19 -10 42 -20 27
-22 44 -23 136 0 58 -4 105 -9 105 -5 0 -9 -9 -9 -20 0 -11 -6 -20 -14 -20 -8
0 -17 -8 -20 -17 -5 -12 -9 -14 -18 -5 -18 18 -31 14 -25 -7 5 -20 -16 -36
-33 -26 -5 3 -15 -3 -22 -12 -7 -10 -28 -26 -46 -35 -17 -10 -47 -26 -64 -35
-18 -10 -35 -20 -38 -23 -3 -3 -17 -13 -33 -23 -21 -14 -32 -15 -48 -7 -13 7
-25 8 -32 2 -14 -11 -110 11 -144 33 -25 17 -83 20 -83 5 0 -18 -60 -11 -66 8
-3 9 -10 25 -15 34 -5 10 -9 37 -9 62 0 36 -6 50 -35 82 -19 22 -52 58 -73 82
-20 23 -57 61 -81 85 -207 201 -243 228 -351 262 -30 10 -89 30 -130 46 -65
24 -115 37 -170 44 -33 4 -166 49 -187 62 -12 8 -27 13 -35 11 -12 -2 -111 24
-153 42 -28 12 -86 30 -96 30 -4 0 0 -13 9 -30 9 -16 24 -30 32 -30 9 0 24 -9
33 -21 10 -11 24 -18 32 -15 8 3 12 0 9 -7 -6 -16 -49 -16 -66 1 -6 6 -17 12
-23 12 -5 0 -37 14 -70 30 -33 16 -70 30 -82 30 -13 0 -23 4 -23 9 0 5 -17 11
-37 13 -21 3 -45 8 -53 12 -8 3 -26 -1 -39 -10z m239 -135 c19 -1 42 1 50 5 9
4 24 -1 36 -12 11 -11 37 -22 57 -26 24 -5 45 -17 59 -36 12 -17 30 -32 39
-35 10 -4 25 -20 34 -37 19 -38 19 -54 1 -39 -10 8 -21 8 -45 0 -29 -10 -34
-9 -47 10 -8 11 -25 21 -37 21 -14 0 -28 11 -39 30 -10 18 -24 29 -35 28 -24
-3 -103 23 -103 34 0 4 -10 8 -21 8 -21 0 -21 -1 5 -26 30 -31 32 -46 10 -65
-13 -10 -20 -10 -44 4 -19 11 -31 14 -35 7 -9 -14 -45 -8 -75 13 -13 9 -30 17
-36 17 -15 0 -74 67 -74 84 0 17 51 28 68 14 6 -6 18 -22 25 -37 7 -14 21 -27
32 -29 11 -2 27 -10 36 -18 23 -21 46 -8 45 26 -1 15 -4 26 -8 23 -5 -2 -8 10
-8 27 0 40 36 57 60 29 8 -11 30 -19 50 -20z m-665 -59 c-3 -5 -13 -10 -21
-10 -8 0 -14 5 -14 10 0 6 9 10 21 10 11 0 17 -4 14 -10z m365 -55 c0 -21 -27
-30 -45 -15 -23 19 -18 30 15 30 20 0 30 -5 30 -15z m-748 -57 c-10 -10 -62 0
-62 12 0 14 24 17 48 7 13 -6 19 -14 14 -19z m118 23 c0 -14 -18 -23 -31 -15
-8 4 -7 9 2 15 18 11 29 11 29 0z m184 -23 c-3 -4 9 -14 25 -23 37 -19 42 -19
35 0 -4 8 -1 15 5 15 6 0 11 -7 11 -15 0 -8 5 -15 10 -15 6 0 13 7 16 15 7 16
49 21 58 6 3 -5 22 -12 41 -15 19 -4 35 -12 35 -18 0 -6 8 -8 19 -5 17 4 17 1
8 -29 -11 -34 -21 -42 -32 -24 -3 6 -11 10 -17 10 -7 0 -6 -6 2 -15 7 -8 20
-15 30 -15 19 0 34 -26 24 -42 -4 -5 -19 -8 -34 -4 -15 3 -30 2 -33 -1 -8 -7
12 -46 29 -56 8 -4 14 -12 14 -18 0 -13 -30 4 -86 46 -23 18 -49 35 -56 38
-10 4 -9 9 5 20 23 19 22 24 -10 24 -32 0 -91 37 -128 81 -32 38 -32 47 4 47
16 0 27 -3 25 -7z m527 -7 c13 -11 21 -23 16 -27 -10 -10 -57 16 -57 33 0 18
14 16 41 -6z m458 -40 c6 -10 7 -21 4 -25 -9 -8 -33 14 -33 30 0 20 18 17 29
-5z m-1249 -13 c17 -18 20 -19 20 -5 0 28 55 22 77 -8 10 -13 31 -26 47 -29
16 -3 33 -11 37 -18 4 -6 22 -19 40 -27 18 -9 40 -27 50 -41 21 -31 35 -85 18
-75 -11 7 -47 12 -131 19 -37 3 -68 20 -68 38 0 6 7 8 15 4 31 -11 14 10 -20
26 -32 14 -34 14 -25 -3 15 -28 12 -32 -19 -26 -32 7 -46 -11 -36 -44 9 -29
-10 -23 -47 15 -18 18 -43 38 -55 45 -25 13 -30 40 -10 60 10 11 10 14 0 18
-20 7 -15 33 5 33 11 0 27 -9 37 -20 25 -28 48 -26 40 3 -4 12 -9 30 -11 40
-7 24 11 21 36 -5z m626 1 c16 -18 16 -19 -12 -19 -27 0 -54 15 -54 30 0 14
51 6 66 -11z m70 0 c3 -6 2 -15 -3 -20 -14 -14 -43 0 -36 17 6 17 29 19 39 3z
m-858 -118 c3 -27 0 -32 -15 -29 -19 3 -28 30 -19 54 10 26 31 10 34 -25z
m-143 5 c51 -17 70 -28 69 -40 -1 -9 3 -16 8 -16 5 0 8 -12 6 -27 -2 -21 -9
-29 -28 -31 -14 -2 -29 -8 -35 -14 -7 -7 -3 -8 12 -4 30 9 95 -25 127 -67 14
-19 26 -37 26 -40 0 -16 -35 -5 -56 18 -13 14 -28 25 -34 25 -6 0 -8 -10 -4
-25 5 -22 3 -25 -22 -26 -16 -1 -36 0 -44 1 -18 2 -64 48 -73 73 -8 22 -33 17
-29 -6 2 -11 -6 -15 -30 -14 -24 2 -34 7 -37 22 -2 11 -14 33 -27 48 -22 26
-28 41 -21 50 1 2 -4 11 -11 20 -14 17 -8 57 9 57 5 0 12 0 17 0 4 0 7 -17 7
-38 0 -33 3 -37 27 -40 14 -2 32 -10 38 -18 18 -21 39 -18 33 6 -4 14 0 20 11
20 9 0 16 6 16 13 0 19 -21 37 -45 37 -21 0 -45 17 -45 32 0 15 65 7 135 -16z
m1314 -7 c13 -11 21 -22 18 -25 -7 -7 -45 17 -51 33 -7 18 5 15 33 -8z m-324
-19 c20 -23 14 -36 -20 -42 -17 -4 -25 -1 -25 8 0 8 -11 14 -25 14 -14 0 -29
8 -35 20 -9 16 -8 20 5 20 8 0 15 -8 15 -17 0 -15 2 -14 15 4 17 24 44 21 70
-7z m1018 -8 c10 -10 14 -21 11 -25 -9 -9 -44 16 -44 30 0 18 14 16 33 -5z
m-1819 -33 c-8 -14 -31 -11 -37 4 -4 10 2 13 19 9 13 -2 21 -8 18 -13z m676 6
c7 -9 11 -18 8 -20 -9 -10 -38 7 -38 21 0 18 14 18 30 -1z m518 -1 c29 -14 51
-34 37 -34 -17 0 -75 30 -75 39 0 14 1 14 38 -5z m582 2 c0 4 6 -1 14 -11 16
-22 12 -35 -10 -35 -8 0 -12 5 -9 10 3 6 -1 10 -9 10 -18 0 -29 16 -21 30 5 8
11 7 21 -1 8 -6 14 -8 14 -3z m-2328 -67 c-17 -17 -36 -28 -42 -24 -16 10 -11
25 9 25 10 0 21 7 25 15 3 8 13 15 23 15 13 0 9 -7 -15 -31z m1321 12 c9 0 17
-5 17 -11 0 -11 -28 -9 -47 3 -6 4 -14 3 -18 -3 -4 -6 -11 -8 -16 -5 -5 4 -9
1 -9 -6 0 -7 -3 -9 -6 -6 -12 12 16 34 39 32 12 -1 30 -3 40 -4z m87 -26 c0
-8 -7 -15 -16 -15 -14 0 -14 3 -4 15 7 8 14 15 16 15 2 0 4 -7 4 -15z m-1481
-15 c12 0 17 -8 16 -27 0 -24 -5 -28 -31 -31 -27 -3 -32 0 -37 25 -6 34 0 46
20 39 8 -3 22 -6 32 -6z m266 -65 c43 -43 31 -59 -19 -26 -16 11 -34 18 -40
17 -6 -2 -8 -1 -3 1 4 3 7 11 7 19 0 22 27 16 55 -11z m562 0 c9 -24 -1 -27
-15 -5 -8 13 -8 20 -2 20 6 0 13 -7 17 -15z m-793 -22 c-6 -24 -5 -26 8 -16
12 11 19 8 38 -12 13 -14 20 -28 17 -32 -4 -3 -2 -12 4 -19 14 -18 4 -44 -16
-44 -12 0 -15 6 -10 20 5 14 2 20 -9 20 -9 0 -16 4 -16 8 0 5 -13 22 -29 38
-22 22 -27 33 -20 46 5 10 16 18 25 18 11 0 13 -7 8 -27z m146 -18 c21 -25 1
-31 -22 -7 -18 18 -19 22 -6 22 8 0 21 -7 28 -15z m740 -23 c0 -14 -11 -21
-26 -15 -21 8 -17 23 6 23 11 0 20 -4 20 -8z m-587 -35 c19 -16 22 -33 8 -41
-12 -8 -80 35 -81 51 -1 26 31 22 73 -10z m417 -19 c0 -6 -7 -5 -15 2 -8 7
-15 17 -15 22 0 6 7 5 15 -2 8 -7 15 -17 15 -22z m116 3 c-3 -5 5 -12 19 -15
14 -4 25 -11 25 -16 0 -15 -46 -12 -60 5 -12 15 -6 35 11 35 6 0 8 -4 5 -9z
m-890 -26 c-3 -8 -1 -15 4 -15 6 0 10 -7 10 -16 0 -9 -7 -14 -17 -12 -24 4
-31 58 -8 58 11 0 15 -5 11 -15z m984 5 c0 -5 -7 -10 -15 -10 -8 0 -15 5 -15
10 0 6 7 10 15 10 8 0 15 -4 15 -10z m-1112 -32 c20 -23 47 -78 36 -78 -12 0
-84 74 -84 87 0 20 24 16 48 -9z m328 -24 c40 -31 43 -42 10 -39 -27 3 -66 34
-66 52 0 20 18 16 56 -13z m68 -12 c-22 -5 -31 7 -14 18 9 6 17 5 22 -3 4 -7
1 -13 -8 -15z m-108 -42 c9 -11 9 -17 1 -22 -13 -9 -68 51 -60 65 5 8 37 -15
59 -43z m147 -17 c18 -10 50 -18 72 -19 64 -4 75 -7 75 -20 0 -22 -19 -26 -50
-10 -19 9 -44 13 -65 9 -38 -6 -85 17 -85 42 0 20 14 19 53 -2z m-572 -15 c-9
-24 -36 -46 -46 -37 -15 15 14 47 52 58 1 1 -1 -9 -6 -21z m552 -55 c-7 -18
-32 -16 -39 2 -4 8 -12 15 -20 15 -7 0 -11 6 -8 14 5 13 11 12 39 -2 18 -9 30
-23 28 -29z m-322 -195 c25 -39 -13 -38 -40 1 -12 16 -21 32 -21 34 0 9 52
-21 61 -35z m-281 -25 c61 -58 74 -78 43 -65 -29 11 -63 36 -63 45 0 4 -11 19
-25 33 -22 22 -33 44 -20 44 2 0 31 -26 65 -57z m61 -116 c-12 -12 -31 0 -31
19 0 12 3 12 20 2 11 -7 16 -16 11 -21z m1932 -26 c15 -6 38 -10 50 -9 12 1
41 -10 64 -25 24 -15 46 -27 50 -27 4 0 45 -18 91 -41 69 -34 83 -44 79 -60
-6 -22 25 -43 53 -36 11 3 21 -1 24 -9 4 -10 17 -13 41 -11 25 3 35 0 35 -9 0
-9 11 -14 30 -14 23 0 28 -3 23 -16 -4 -12 -2 -15 8 -12 8 3 13 12 11 19 -2 8
5 6 18 -6 l22 -20 -21 -3 c-23 -4 -28 -31 -9 -50 8 -8 15 -9 25 -1 24 20 14
-1 -12 -25 -27 -25 -32 -42 -14 -48 13 -4 -6 -45 -30 -64 -15 -11 -17 -19 -25
-86 -2 -21 -12 -45 -21 -54 -12 -12 -13 -19 -4 -30 15 -18 2 -39 -16 -24 -9 8
-15 8 -20 0 -3 -5 0 -10 8 -10 8 0 20 -7 27 -15 7 -8 21 -15 31 -15 16 0 17
-3 8 -24 -9 -19 -8 -27 7 -42 15 -15 19 -34 18 -91 0 -51 3 -73 12 -73 7 0 10
-8 7 -21 -4 -13 -11 -18 -21 -14 -8 3 -22 -3 -31 -12 -31 -33 -55 -41 -102
-33 -24 5 -49 4 -55 0 -5 -5 -20 -7 -32 -3 -14 3 -24 0 -28 -10 -4 -12 -14
-15 -34 -11 -15 4 -31 1 -34 -5 -4 -5 -14 -7 -23 -4 -9 4 -19 -1 -25 -10 -5
-10 -21 -17 -36 -17 -15 0 -37 -7 -49 -15 -12 -9 -33 -14 -45 -12 -13 2 -17 2
-10 0 11 -4 10 -9 -4 -24 -9 -10 -21 -19 -27 -19 -5 0 -18 -11 -29 -26 -19
-23 -21 -24 -38 -9 -17 16 -19 15 -30 -4 -6 -12 -17 -21 -25 -21 -8 0 -15 -4
-15 -10 0 -5 -7 -10 -15 -10 -11 0 -15 -12 -15 -45 0 -31 -4 -45 -14 -45 -26
0 -42 -174 -32 -375 0 -16 -3 -33 -9 -37 -5 -4 -9 -26 -9 -50 0 -24 -3 -45 -8
-48 -13 -10 4 -52 18 -46 11 4 13 -2 9 -24 -4 -20 -1 -30 7 -30 20 0 33 12 50
48 12 27 17 30 22 17 5 -15 9 -15 22 -4 13 11 17 10 25 -3 5 -10 17 -14 29
-11 23 6 27 33 5 33 -17 0 -20 26 -5 35 6 4 8 15 5 25 -5 14 1 20 27 25 20 5
34 3 36 -3 3 -11 60 14 74 33 5 6 12 4 18 -5 8 -13 10 -12 10 4 0 13 4 16 13
9 17 -13 110 -49 179 -68 53 -15 228 -26 228 -15 0 10 79 30 94 24 9 -3 16 -1
16 6 0 15 106 8 122 -8 7 -7 18 -12 25 -12 17 0 17 -27 1 -33 -7 -3 -3 -6 10
-6 25 -1 30 -16 7 -25 -8 -3 -15 -15 -15 -27 0 -14 5 -19 14 -16 10 4 15 -7
20 -39 4 -29 14 -53 30 -67 22 -21 23 -25 13 -77 -6 -30 -15 -58 -20 -61 -5
-4 -6 -15 -3 -26 4 -12 1 -25 -9 -33 -8 -7 -15 -24 -15 -37 0 -16 -7 -27 -20
-30 -11 -3 -20 -11 -20 -18 0 -8 -15 -28 -32 -46 -34 -34 -47 -89 -20 -89 7 0
1 -11 -15 -24 -21 -18 -33 -22 -50 -15 -27 10 -53 2 -53 -17 0 -8 -7 -14 -15
-14 -8 0 -15 9 -15 20 0 13 5 18 15 14 10 -4 15 0 15 15 0 25 -8 26 -36 6 -12
-8 -24 -11 -28 -8 -3 3 -6 -1 -6 -10 0 -23 -15 -21 -26 3 -8 18 -12 18 -34 7
-14 -7 -34 -16 -44 -20 -16 -6 -17 -5 -6 8 8 9 8 15 2 15 -6 0 -14 -9 -17 -20
-3 -11 -12 -20 -20 -20 -7 0 -15 -5 -17 -12 -6 -17 -39 -1 -45 21 -6 23 -68
27 -77 5 -3 -7 -12 -11 -21 -8 -10 4 -15 0 -15 -11 0 -12 -5 -15 -17 -10 -10
4 -24 8 -31 8 -8 0 -10 8 -6 20 5 15 3 19 -9 14 -11 -4 -14 -2 -10 9 3 7 0 14
-7 14 -9 0 -10 11 -6 35 6 29 4 34 -10 28 -14 -5 -14 -3 -3 15 9 14 20 20 31
16 10 -3 21 3 27 15 9 16 8 22 -6 30 -15 9 -16 12 -4 20 21 14 6 41 -19 34
-16 -4 -19 -2 -14 11 3 9 0 24 -7 33 -11 13 -11 17 -1 20 22 8 13 23 -15 24
-16 0 -23 3 -16 5 13 6 0 25 -50 76 -20 20 -34 27 -48 23 -11 -4 -26 -1 -34 5
-12 10 -18 10 -30 0 -8 -6 -19 -9 -24 -6 -5 4 -12 2 -16 -4 -3 -5 -17 -10 -31
-10 -21 0 -24 -5 -24 -34 0 -22 -6 -36 -16 -40 -13 -5 -14 -9 -4 -21 7 -8 9
-26 5 -44 -5 -23 -2 -32 13 -40 16 -8 21 -6 33 17 7 15 14 35 15 45 1 10 16
31 34 47 26 23 37 27 55 20 13 -5 26 -6 29 -3 3 3 8 -2 12 -11 3 -9 12 -16 20
-16 8 0 15 -3 15 -7 17 -99 15 -124 -14 -145 -21 -15 -26 -26 -22 -42 5 -16 4
-18 -4 -6 -8 12 -12 9 -20 -13 -6 -16 -18 -27 -30 -27 -10 0 -33 -3 -50 -6
-26 -6 -31 -4 -31 14 0 11 -7 25 -15 32 -8 7 -15 25 -15 40 0 16 -7 30 -16 34
-11 4 -14 1 -12 -12 4 -18 1 -23 -46 -73 -17 -19 -31 -27 -35 -20 -9 15 -81
-8 -81 -26 0 -8 10 -18 23 -23 20 -9 20 -10 1 -7 -12 1 -33 -12 -55 -36 -32
-35 -69 -49 -69 -27 0 6 7 10 15 10 8 0 15 3 15 8 0 4 -18 8 -40 8 -32 1 -38
-1 -30 -11 8 -10 5 -13 -15 -11 -14 0 -28 8 -31 19 -3 9 -10 17 -15 17 -5 0
-9 7 -9 15 0 17 -40 37 -80 40 -53 5 -176 28 -192 36 -28 15 14 -49 69 -105
35 -36 43 -50 34 -59 -9 -9 -14 -9 -20 2 -8 12 -14 12 -43 1 -18 -8 -36 -19
-41 -26 -8 -14 -68 -46 -74 -40 -2 2 12 21 31 42 19 21 33 41 30 44 -3 3 -14
-5 -24 -17 -10 -13 -22 -23 -26 -23 -17 0 -44 -34 -44 -55 0 -26 -24 -50 -40
-40 -5 3 -10 17 -10 31 0 21 -3 24 -25 18 -15 -4 -32 -1 -40 6 -12 10 -21 7
-50 -14 -33 -26 -35 -26 -35 -7 0 16 -6 21 -24 21 -14 0 -28 5 -31 10 -8 13
-62 13 -70 0 -5 -8 -11 -7 -21 1 -12 10 -16 9 -20 -7 -5 -18 -61 -64 -78 -64
-5 0 -6 13 -3 29 4 20 2 31 -8 35 -16 6 -20 2 -29 -36 -5 -21 -2 -30 14 -38
20 -11 19 -11 -7 -36 -16 -14 -22 -22 -14 -18 12 6 13 -1 8 -41 -4 -26 -12
-54 -19 -62 -8 -10 -8 -17 0 -25 8 -8 14 -5 20 12 6 16 11 20 16 11 10 -15
-22 -53 -37 -44 -6 3 -7 1 -3 -5 9 -15 1 -15 -24 -2 -15 8 -23 5 -39 -17 -12
-14 -24 -23 -28 -20 -3 4 0 14 8 23 11 14 11 18 -5 30 -17 12 -34 36 -53 74
-10 21 -33 43 -34 33 -1 -4 -1 -16 0 -25 1 -10 -1 -18 -5 -18 -12 0 -33 34
-34 54 0 20 -36 66 -51 66 -5 0 -6 -7 -3 -15 4 -9 0 -15 -9 -15 -17 0 -27 21
-27 55 0 13 -5 27 -10 30 -6 4 -8 10 -5 15 3 5 1 11 -5 15 -5 3 -10 1 -10 -4
0 -6 -7 -11 -15 -11 -11 0 -14 7 -9 25 5 20 3 24 -9 19 -16 -6 -31 11 -32 36
0 10 -8 14 -22 13 -19 -2 -23 2 -25 30 -3 64 -4 72 -16 100 -7 16 -12 45 -12
65 0 20 -5 65 -10 99 -18 109 -27 397 -14 468 2 17 7 71 9 120 2 50 7 104 10
120 3 17 7 68 10 115 2 47 7 103 10 125 3 22 7 70 10 107 8 92 55 250 81 273
7 6 14 32 17 59 3 27 9 51 14 55 10 6 26 55 27 81 2 32 32 88 94 173 35 48 69
87 76 87 7 0 25 11 40 25 15 14 31 25 35 25 4 0 14 11 21 25 16 29 42 40 67
26 11 -5 36 -6 63 -1 25 5 48 9 53 10 4 0 7 6 7 14 0 17 22 26 66 26 32 0 33
1 27 30 -4 23 -1 34 13 45 30 23 55 17 92 -21 29 -30 37 -34 46 -22 6 8 32 24
59 37 38 18 50 21 62 11 8 -7 23 -9 32 -5 10 4 54 13 98 20 144 24 176 35 192
64 9 14 31 36 50 49 40 26 62 29 43 7 -7 -9 -11 -17 -8 -20 9 -9 85 20 128 49
38 26 55 31 107 31 34 0 65 4 70 8 10 11 161 1 196 -12z m-1849 -11 c7 -7 7
-13 0 -20 -11 -11 -74 14 -74 29 0 11 62 3 74 -9z m641 -200 c3 -5 -1 -10 -9
-10 -9 0 -16 -4 -16 -9 0 -5 -9 -11 -20 -14 -11 -3 -20 -1 -20 4 0 5 0 12 -1
17 0 4 10 10 23 14 34 9 36 9 43 -2z m-911 -1033 c21 -15 12 -49 -13 -45 -26
5 -43 58 -18 58 7 0 21 -6 31 -13z m2464 -346 c4 -11 -6 -13 -49 -9 -73 8
-220 -8 -230 -24 -6 -10 -13 -10 -26 -2 -33 20 -21 38 27 42 25 2 50 5 55 7 6
2 57 3 114 2 80 -2 105 -5 109 -16z m-447 -46 c1 -17 -18 -17 -25 0 -4 11 -1
15 10 13 8 -2 15 -7 15 -13z m49 -160 c0 -9 -9 -15 -25 -15 -26 0 -34 15 -12
23 23 10 37 7 37 -8z m1390 -161 c0 -14 -22 -44 -30 -39 -13 8 0 45 16 45 8 0
14 -3 14 -6z m-550 -413 c0 -6 -5 -13 -10 -16 -15 -9 -43 3 -35 15 8 13 45 13
45 1z m-2620 -186 c0 -8 -4 -15 -10 -15 -5 0 -10 7 -10 15 0 8 5 15 10 15 6 0
10 -7 10 -15z m1120 -10 c0 -17 -6 -25 -17 -25 -13 0 -14 3 -6 11 6 6 9 18 6
25 -3 8 0 14 6 14 6 0 11 -11 11 -25z m-1078 -42 c22 -20 23 -33 2 -33 -11 0
-14 -6 -8 -22 3 -13 3 -20 -1 -16 -4 4 -9 18 -10 30 -2 13 -6 31 -10 41 -9 22
3 22 27 0z m738 -18 c-7 -8 -17 -15 -23 -15 -5 0 -2 9 8 20 21 23 35 19 15 -5z
m379 -17 c-17 -34 -19 -34 -19 -5 0 18 5 27 15 27 13 0 14 -4 4 -22z m-319
-14 c0 -9 -7 -14 -17 -12 -25 5 -28 28 -4 28 12 0 21 -6 21 -16z m196 -21
c-11 -11 -17 4 -9 23 7 18 8 18 11 1 2 -10 1 -21 -2 -24z m464 -108 c0 -8 5
-15 11 -15 6 0 3 -7 -5 -16 -18 -18 -20 -30 -6 -39 6 -3 10 -13 10 -21 0 -8
-5 -12 -11 -9 -6 4 -20 -3 -32 -16 -14 -15 -17 -24 -9 -27 19 -6 14 -21 -5
-17 -10 2 -21 4 -25 4 -6 1 16 83 29 104 4 7 6 24 4 39 -2 23 2 28 18 28 12 0
21 -6 21 -15z m-1040 -107 c0 -13 -5 -30 -10 -38 -9 -13 -12 -13 -23 1 -6 9
-17 18 -24 20 -9 3 -9 8 -2 19 8 11 12 12 16 3 7 -18 24 -16 17 2 -4 9 0 15
10 15 10 0 16 -8 16 -22z m582 -90 c4 -29 28 -35 35 -9 6 25 10 25 178 10 150
-14 227 -20 240 -19 6 1 37 3 70 7 71 6 131 6 163 -2 18 -4 22 -10 17 -25 -6
-18 -3 -19 26 -13 29 6 31 5 24 -18 -12 -38 -48 -78 -71 -78 -12 -1 -27 -7
-33 -15 -7 -8 -28 -17 -49 -21 -20 -4 -45 -15 -55 -26 -17 -18 -17 -19 8 -19
16 0 25 -6 25 -15 0 -15 -32 -17 -55 -3 -5 3 -32 2 -60 -3 -27 -4 -72 -8 -100
-9 -65 0 -97 -9 -88 -24 5 -8 3 -8 -8 0 -8 6 -39 14 -68 18 -30 4 -66 13 -80
21 -15 7 -53 19 -86 25 -33 7 -63 17 -67 24 -14 22 -28 -10 -35 -80 -4 -43
-12 -73 -21 -80 -13 -9 -11 -15 8 -37 13 -15 32 -27 42 -27 25 0 23 -15 -6
-33 -22 -15 -25 -15 -40 2 -9 10 -14 25 -10 35 7 18 -20 23 -31 6 -9 -15 -43
-12 -70 6 -28 18 -33 44 -10 44 8 0 15 5 15 11 0 13 -25 39 -38 39 -16 0 -24
50 -11 66 10 12 9 13 -4 9 -24 -10 -30 28 -13 85 10 34 12 59 6 74 -7 21 -6
23 11 19 11 -3 19 0 19 7 0 7 8 9 20 5 13 -4 23 0 32 14 14 22 78 30 78 10 0
-19 45 -4 55 19 12 28 33 29 37 0z m718 -233 c7 -9 10 -18 7 -22 -8 -7 -37 15
-37 28 0 14 16 11 30 -6z m-674 -228 c-1 -21 3 -31 12 -29 6 1 18 3 25 5 8 1
11 -9 11 -30 -1 -18 2 -33 7 -33 5 0 9 -8 9 -17 -1 -17 -1 -17 -14 0 -7 9 -18
17 -25 17 -10 0 -12 4 -11 25 1 13 -26 32 -37 28 -14 -5 -18 33 -7 61 10 26
32 7 30 -27z m-216 -1 c0 -8 -5 -18 -11 -22 -14 -8 -33 11 -25 25 10 16 36 13
36 -3z m193 -60 c7 -16 -1 -26 -20 -26 -7 0 -13 9 -13 20 0 23 25 27 33 6z
m222 -75 c3 -17 2 -38 -3 -48 -5 -10 -7 -24 -5 -30 3 -7 0 -13 -5 -13 -10 0
-23 99 -15 113 9 15 22 6 28 -22z m-131 -17 c9 -24 7 -27 -9 -10 -17 17 -19
26 -6 26 5 0 12 -7 15 -16z m-714 -78 c0 -7 15 -16 32 -21 19 -6 38 -21 45
-35 7 -13 20 -30 29 -37 9 -7 14 -19 11 -27 -4 -10 -1 -13 9 -9 9 3 14 -1 14
-14 0 -11 16 -38 36 -62 35 -40 35 -43 18 -56 -17 -12 -17 -15 -4 -41 8 -16
32 -45 53 -66 20 -21 37 -44 37 -52 0 -7 7 -19 15 -26 8 -7 12 -16 10 -21 -3
-5 3 -14 15 -21 22 -14 27 -38 7 -38 -22 0 -57 30 -57 50 0 13 -5 17 -19 13
-18 -5 -36 -41 -26 -52 3 -2 5 1 5 7 0 7 5 12 11 12 20 0 4 -43 -20 -51 -18
-7 -22 -6 -18 6 4 8 -2 20 -13 28 -11 8 -17 17 -13 20 3 4 -3 17 -14 30 -11
12 -24 36 -27 52 -4 17 -14 37 -21 45 -7 8 -18 34 -24 58 -7 23 -15 42 -20 42
-6 0 -26 49 -36 90 -1 3 -9 23 -18 44 -24 54 -47 124 -47 141 0 9 6 12 15 9 8
-4 15 -11 15 -18z m-686 -234 c-8 -49 -38 -102 -58 -102 -12 0 -13 7 -6 31 5
17 16 41 23 53 8 11 17 34 21 50 11 44 28 17 20 -32z m3752 -260 c-4 -3 -11
-1 -18 6 -8 8 -8 15 3 28 13 16 14 16 17 -5 2 -13 1 -25 -2 -29z m-2763 -47
c7 -16 -8 -29 -23 -20 -15 9 -12 35 4 35 8 0 16 -7 19 -15z m-47 -25 c0 -13
-5 -19 -14 -15 -7 3 -16 5 -18 5 -12 0 -1 19 14 23 9 3 17 5 17 6 1 0 1 -8 1
-19z m1978 -166 c9 -24 7 -27 -9 -10 -17 17 -19 26 -6 26 5 0 12 -7 15 -16z
m-34 -14 c0 -5 -7 -10 -15 -10 -8 0 -15 5 -15 10 0 6 7 10 15 10 8 0 15 -4 15
-10z m190 -42 c0 -5 -4 -7 -8 -4 -5 3 -9 -8 -9 -25 0 -19 4 -26 10 -20 7 7 16
7 28 1 25 -14 34 5 15 32 -20 28 -20 38 -2 38 8 0 18 -9 21 -20 7 -22 25 -26
42 -9 6 6 17 9 23 7 8 -2 -5 -21 -29 -47 -40 -42 -50 -72 -13 -38 24 22 32 21
32 0 1 -18 22 -53 32 -53 3 0 8 14 12 30 3 17 10 30 16 30 13 0 13 -17 0 -25
-16 -10 -12 -45 6 -45 8 0 13 -4 10 -9 -3 -4 6 -6 19 -3 27 5 45 -9 66 -53 11
-22 21 -30 39 -28 14 1 19 -1 13 -3 -19 -8 -16 -22 7 -29 11 -3 20 -11 20 -16
0 -12 -18 -12 -33 1 -48 41 -62 50 -74 50 -10 0 -12 6 -7 22 6 21 5 21 -10 9
-15 -13 -22 -13 -49 1 -52 25 -110 47 -152 57 -22 6 -58 15 -80 21 -22 6 -77
12 -123 13 l-83 2 6 25 c3 14 7 32 8 40 2 15 22 28 46 29 11 1 11 -2 1 -14
-19 -23 -2 -38 23 -20 12 8 30 15 40 15 10 0 21 9 24 20 6 23 43 27 43 5 0 -8
7 -15 15 -15 18 0 20 16 3 26 -8 5 -6 10 8 14 22 8 44 2 44 -12z m-345 -190
c-2 -43 -39 -157 -69 -213 -9 -16 -16 -38 -16 -47 0 -10 -4 -18 -10 -18 -17 0
-11 43 10 75 11 17 20 38 20 48 0 9 5 17 11 17 5 0 8 4 4 9 -3 5 -1 13 5 16 8
5 7 11 -1 21 -9 11 -9 14 1 14 7 0 10 6 7 13 -3 7 4 19 15 26 16 10 19 20 15
47 -3 19 -2 34 3 34 4 0 7 -19 5 -42z m1041 -120 c4 -6 2 -14 -4 -16 -7 -2
-10 -14 -6 -30 5 -26 5 -26 -10 -8 -9 11 -16 27 -16 36 0 29 23 40 36 18z
m-103 -73 c-5 -13 -23 -22 -23 -11 0 15 14 35 21 31 4 -3 6 -12 2 -20z m-2409
-221 c9 -3 16 -15 16 -25 0 -10 14 -32 30 -49 17 -17 30 -35 30 -41 0 -6 14
-22 30 -36 23 -19 28 -28 20 -38 -8 -10 -8 -15 1 -21 8 -4 9 -3 5 5 -12 19 25
26 39 8 7 -10 17 -17 24 -17 6 0 11 -7 11 -15 0 -8 4 -15 9 -15 16 0 111 -129
111 -150 0 -17 4 -20 20 -15 16 5 20 2 20 -15 0 -11 7 -23 15 -26 8 -4 15 -14
15 -24 0 -10 7 -20 15 -24 8 -3 15 -12 15 -20 0 -8 16 -28 36 -45 29 -26 33
-35 24 -46 -9 -11 -9 -18 4 -30 9 -9 16 -13 16 -8 0 4 7 0 15 -11 12 -16 11
-23 -12 -57 -25 -38 -27 -39 -49 -24 -27 18 -50 31 -173 104 -50 30 -94 57
-96 61 -3 4 0 22 6 40 9 23 9 34 1 39 -13 8 -82 141 -82 159 0 6 5 12 10 12 6
0 10 5 10 11 0 8 -4 8 -15 -1 -12 -10 -18 -6 -34 22 -11 18 -25 39 -31 46 -9
10 -9 16 0 27 12 14 10 17 -28 60 -16 18 -37 78 -45 128 -6 40 -6 40 17 31z
m2412 -20 c-5 -13 -2 -15 14 -11 16 4 20 1 18 -11 -2 -9 -12 -18 -23 -20 -17
-2 -21 3 -23 28 -1 17 3 30 9 30 6 0 8 -7 5 -16z m55 -73 c13 -11 21 -23 17
-27 -4 -4 -14 -2 -21 4 -8 7 -17 8 -23 2 -12 -11 -48 15 -39 29 10 17 40 13
66 -8z m1 -83 c-15 -15 -26 -4 -18 18 5 13 9 15 18 6 9 -9 9 -15 0 -24z
m-2575 -86 c5 -45 -11 -111 -23 -99 -9 8 -24 158 -18 169 11 18 37 -26 41 -70z
m2580 54 c-4 -10 -1 -13 8 -9 22 8 32 -27 11 -39 -9 -5 -14 -13 -11 -17 2 -5
-2 -15 -11 -22 -13 -10 -17 -10 -24 2 -13 20 5 99 22 99 5 0 8 -7 5 -14z
m-547 -56 c-8 -5 -11 -10 -6 -10 5 0 3 -7 -4 -15 -11 -13 -14 -13 -26 2 -20
27 -17 33 19 33 24 0 28 -3 17 -10z m579 -112 c-17 -34 -19 -34 -19 -5 0 18 5
27 15 27 13 0 14 -4 4 -22z m-244 -65 c21 21 31 21 39 1 10 -27 7 -34 -18 -34
-31 0 -62 -28 -47 -43 8 -8 15 -5 24 8 11 14 16 15 22 5 13 -20 14 -74 3 -87
-7 -9 -7 -13 1 -13 6 0 11 -11 11 -25 0 -14 7 -28 15 -31 24 -9 5 -26 -21 -20
-18 5 -24 2 -24 -10 0 -11 5 -14 16 -10 13 5 15 2 11 -15 -6 -24 27 -63 48
-55 7 2 19 -2 26 -10 10 -12 6 -20 -17 -43 -21 -21 -33 -27 -45 -21 -24 13
-49 6 -71 -21 l-20 -24 4 26 c4 22 1 25 -26 27 -37 3 -42 8 -51 49 -5 25 -3
32 12 36 15 3 13 6 -10 15 -27 11 -30 36 -3 26 7 -3 19 2 26 10 10 13 9 19
-10 34 -20 16 -21 19 -6 31 9 7 16 22 16 33 0 10 9 31 20 47 18 23 20 34 12
68 -6 26 -6 47 1 58 9 17 11 16 27 -5 17 -22 19 -23 35 -7z m249 11 c4 -10 1
-14 -6 -12 -15 5 -23 28 -10 28 5 0 13 -7 16 -16z m46 -32 c0 -7 -4 -10 -10
-7 -5 3 -10 16 -10 28 0 18 2 19 10 7 5 -8 10 -21 10 -28z m-50 -17 c0 -8 -4
-15 -10 -15 -5 0 -10 7 -10 15 0 8 5 15 10 15 6 0 10 -7 10 -15z m70 -24 c0
-5 -9 -11 -20 -14 -17 -4 -20 -10 -14 -34 9 -36 12 -39 26 -25 22 22 27 13 11
-19 -15 -30 -15 -30 -34 -10 -10 11 -19 25 -19 31 0 5 -5 10 -11 10 -11 0 -3
37 13 58 12 14 48 17 48 3z m-410 -26 c0 -8 -7 -15 -15 -15 -8 0 -15 7 -15 15
0 8 7 15 15 15 8 0 15 -7 15 -15z m828 -25 c27 -36 27 -36 1 -43 -17 -5 -20
-11 -15 -30 3 -14 0 -32 -8 -43 -14 -18 -15 -18 -20 6 -4 14 -5 38 -4 55 2 18
-2 30 -9 31 -7 1 -15 2 -18 3 -5 1 37 48 46 50 3 1 15 -12 27 -29z m-2912 -48
c-4 -3 -11 0 -16 8 -15 24 -11 33 6 15 9 -9 13 -19 10 -23z m2278 6 c-3 -4
-14 -8 -24 -8 -10 0 -21 4 -24 8 -3 5 8 9 24 9 16 0 27 -4 24 -9z m144 -7 c3
-8 -1 -12 -9 -9 -7 2 -15 10 -17 17 -3 8 1 12 9 9 7 -2 15 -10 17 -17z m552
-20 c13 -25 13 -51 0 -51 -5 0 -10 11 -10 25 0 14 -4 25 -10 25 -5 0 -10 5
-10 10 0 17 19 11 30 -9z m-490 -51 c0 -13 -19 -22 -35 -16 -8 3 -11 13 -8 25
4 17 9 19 24 10 10 -5 19 -14 19 -19z m280 9 c0 -5 -7 -9 -15 -9 -9 0 -12 6
-9 15 6 15 24 11 24 -6z m-316 -70 c-9 -15 -44 21 -44 45 1 19 2 19 25 -7 14
-16 23 -33 19 -38z m72 -12 c-2 -10 2 -21 10 -24 22 -8 16 -20 -13 -25 -16 -3
-35 -8 -44 -12 -11 -5 -18 -1 -22 13 -3 11 -2 20 2 19 24 -3 31 6 31 35 0 19
3 37 7 41 11 11 35 -27 29 -47z m249 -8 c3 -24 8 -55 11 -69 3 -14 3 -22 -1
-18 -5 5 -35 131 -35 147 0 3 5 0 10 -5 6 -6 13 -31 15 -55z m-473 36 c11 -14
10 -35 -1 -35 -6 0 -21 10 -34 23 l-25 22 27 0 c14 1 29 -4 33 -10z m8 -137
c0 -19 -2 -20 -10 -8 -13 19 -13 30 0 30 6 0 10 -10 10 -22z m-80 -47 c-5 -10
2 -22 22 -40 l30 -25 -21 -17 c-14 -12 -18 -20 -10 -25 6 -3 15 -1 19 6 4 7
12 10 18 6 5 -3 13 6 16 21 5 18 10 23 18 15 7 -7 3 -20 -16 -45 -14 -18 -26
-41 -26 -50 0 -10 -4 -17 -10 -17 -11 0 -1 -30 17 -48 15 -16 17 -32 3 -32 -5
0 -7 -6 -4 -14 4 -9 -7 -20 -31 -31 -40 -19 -55 -14 -34 11 12 14 10 19 -14
40 -15 13 -27 30 -27 39 0 25 30 17 40 -11 6 -14 15 -24 22 -22 18 6 22 28 5
28 -8 0 -18 11 -21 25 -4 14 -11 23 -17 19 -20 -12 -80 6 -87 27 -7 17 -9 16
-26 -12 l-19 -32 22 6 c19 5 21 2 15 -16 -9 -32 -20 -40 -43 -32 -26 8 -28 50
-4 64 13 7 14 12 6 23 -6 7 -14 24 -18 37 -6 20 -4 23 12 19 16 -4 19 -1 15
17 -2 13 1 26 7 29 16 10 14 26 -3 26 -19 0 -27 25 -13 39 8 8 14 7 24 -1 26
-21 78 -20 98 2 17 19 19 19 31 2 7 -9 9 -23 4 -31z m177 5 c16 -32 19 -46 10
-55 -8 -8 -7 -11 6 -11 12 0 17 -8 17 -30 0 -33 -14 -40 -23 -12 -3 9 -15 42
-26 72 -11 30 -20 61 -21 68 0 24 15 11 37 -32z m-131 -14 c-11 -10 -15 4 -8
28 l7 25 3 -23 c2 -13 1 -26 -2 -30z m528 17 c-10 -16 -24 -9 -24 12 0 18 2
19 15 9 8 -7 12 -16 9 -21z m-210 6 c-4 -8 -10 -12 -15 -9 -14 8 -10 24 6 24
9 0 12 -6 9 -15z m-127 -162 c4 -10 10 -20 13 -23 4 -3 4 -13 1 -24 -7 -17 -8
-17 -24 -2 -19 19 -23 66 -7 66 6 0 14 -8 17 -17z m-297 -37 c0 -2 -7 -9 -15
-16 -12 -10 -15 -10 -15 4 0 9 7 16 15 16 8 0 15 -2 15 -4z m-1711 -55 c-6 -1
-17 5 -24 15 -23 31 -17 38 10 13 13 -13 20 -26 14 -28z m2049 -16 c7 -14 12
-34 12 -45 0 -10 4 -20 10 -22 5 -1 11 -30 14 -63 3 -33 8 -70 12 -82 3 -13 2
-23 -4 -23 -13 0 -22 24 -22 59 0 15 -7 42 -16 60 -9 18 -14 43 -11 57 2 15 0
24 -8 24 -14 0 -24 28 -18 48 7 19 19 14 31 -13z m-359 -37 c16 -24 38 -51 47
-60 23 -23 10 -36 -14 -15 -44 40 -57 6 -17 -41 28 -34 18 -53 -10 -22 -10 11
-22 20 -27 20 -13 0 -38 -26 -38 -39 0 -6 -4 -11 -10 -11 -5 0 -10 2 -10 4 0
2 -3 12 -6 20 -5 12 -2 15 10 10 9 -3 16 -1 16 5 0 6 -9 11 -21 11 -15 0 -19
4 -15 16 3 9 6 29 6 45 0 21 4 27 15 23 11 -4 16 5 21 35 4 23 10 41 14 41 5
0 22 -19 39 -42z m176 -28 c3 -5 2 -10 -3 -10 -5 0 -14 -10 -20 -22 -6 -13
-11 -18 -11 -11 -1 7 -8 10 -16 7 -16 -7 -45 12 -45 28 0 6 14 8 35 4 22 -4
35 -3 35 4 0 13 17 13 25 0z m-395 -130 c0 -5 -7 -10 -15 -10 -8 0 -15 5 -15
10 0 6 7 10 15 10 8 0 15 -4 15 -10z m828 -9 c3 -8 -1 -12 -9 -9 -7 2 -15 10
-17 17 -3 8 1 12 9 9 7 -2 15 -10 17 -17z m-418 -25 c0 -16 -18 -31 -27 -22
-8 8 5 36 17 36 5 0 10 -6 10 -14z m-1997 -38 c6 -4 8 -10 4 -14 -4 -4 -16 2
-26 13 -15 16 -17 23 -8 32 9 9 13 8 16 -6 2 -10 8 -21 14 -25z"/>
<path d="M2833 7463 c9 -9 19 -14 23 -11 10 10 -6 28 -24 28 -15 0 -15 -1 1
-17z"/>
<path d="M2570 7462 c0 -15 59 -62 79 -62 26 0 27 12 4 32 -21 18 -83 40 -83
30z"/>
<path d="M1735 5491 c-42 -26 -75 -67 -75 -94 0 -12 -7 -31 -15 -41 -30 -40
-10 -112 26 -91 5 4 6 -1 3 -10 -6 -14 -3 -15 27 -2 26 10 34 20 34 39 0 34
11 44 29 28 13 -10 20 -8 40 8 14 11 23 22 20 25 -3 3 3 3 14 0 28 -7 37 -33
12 -33 -11 0 -20 -5 -20 -10 0 -17 29 -23 45 -10 12 10 15 10 15 -3 0 -10 6
-13 20 -10 11 3 20 9 20 14 0 5 7 9 15 9 8 0 15 -4 15 -10 0 -13 50 -9 51 5 1
13 17 -26 18 -43 1 -7 -7 -12 -16 -11 -10 2 -38 -7 -62 -19 -25 -12 -52 -22
-60 -22 -9 -1 -32 -14 -51 -30 -19 -17 -40 -30 -48 -30 -9 0 -6 -7 7 -21 16
-17 18 -26 9 -44 -6 -15 -16 -21 -25 -18 -11 4 -14 0 -11 -18 3 -21 9 -24 56
-27 28 -2 52 -7 52 -13 0 -5 9 -9 20 -9 10 0 24 -9 30 -20 6 -10 17 -17 24
-14 8 3 17 1 20 -4 12 -19 46 -1 46 24 0 15 6 24 15 24 8 0 15 9 15 19 0 23
25 51 45 51 8 0 23 -20 33 -44 11 -24 25 -46 30 -50 6 -4 91 -9 189 -12 268
-9 258 -8 256 -28 -1 -14 4 -16 20 -12 12 3 25 6 30 6 4 0 8 10 8 23 1 15 3
17 6 6 6 -25 57 -9 61 19 2 12 13 28 24 36 17 12 21 26 22 78 0 35 6 66 11 71
6 4 3 11 -8 18 -12 7 -16 17 -11 31 4 13 2 18 -4 14 -11 -7 -52 39 -52 59 0
14 -22 25 -51 25 -10 0 -18 4 -16 9 1 5 -15 25 -35 45 -21 20 -38 43 -38 51 0
21 -37 19 -49 -2 -7 -12 -13 -14 -18 -7 -27 36 -133 68 -148 44 -4 -7 -13 -7
-26 0 -10 6 -19 7 -19 3 0 -4 -9 3 -19 16 -17 22 -21 23 -55 11 -24 -7 -36
-17 -32 -25 6 -17 -4 -27 -18 -16 -6 5 -33 11 -61 14 -27 3 -61 9 -74 13 -17
5 -22 4 -17 -4 9 -15 1 -15 -25 -1 -14 7 -24 7 -33 0 -6 -5 -21 -10 -31 -9
-11 0 -29 -3 -39 -7 -14 -6 -17 -5 -12 3 4 7 4 21 1 32 -5 17 -15 20 -68 20
-43 0 -71 -6 -92 -19z m74 -57 c3 -16 1 -17 -13 -5 -19 16 -21 34 -3 29 6 -3
14 -13 16 -24z m361 -9 c-7 -8 -17 -12 -22 -9 -6 4 -5 10 3 15 22 14 33 10 19
-6z m-400 -14 c0 -5 3 -18 7 -28 6 -16 5 -16 -10 -4 -19 15 -23 41 -7 41 6 0
10 -4 10 -9z m386 -250 c-4 -5 -12 -8 -20 -5 -7 3 -34 -4 -59 -15 -26 -11 -53
-18 -60 -15 -7 2 -22 -4 -32 -16 -18 -20 -65 -28 -65 -12 0 12 101 62 126 62
11 0 24 4 30 9 12 12 66 19 78 10 4 -4 5 -12 2 -18z m244 -130 c0 -5 -7 -12
-16 -15 -24 -9 -28 -7 -14 9 14 17 30 20 30 6z"/>
<path d="M1637 5253 c-4 -6 0 -16 8 -23 21 -17 28 -8 11 15 -8 11 -15 14 -19
8z"/>
<path d="M1720 5221 c0 -14 18 -23 31 -15 8 4 7 9 -2 15 -18 11 -29 11 -29 0z"/>
<path d="M2065 4970 c-4 -6 -11 -8 -16 -5 -15 10 -10 -11 6 -25 16 -13 35 -6
35 15 0 18 -17 28 -25 15z"/>
<path d="M2230 4931 c-79 -7 -67 -20 18 -20 64 1 86 -6 76 -22 -3 -5 -22 -7
-42 -3 -35 7 -36 6 -22 -11 13 -16 13 -18 0 -13 -8 2 -22 -4 -31 -15 -16 -20
-16 -20 -37 1 -12 12 -28 19 -37 16 -23 -9 -18 -26 5 -19 11 3 20 2 20 -3 0
-13 -100 -10 -101 3 -1 6 -1 13 0 17 0 4 -6 5 -15 1 -12 -4 -13 -8 -3 -14 8
-5 3 -9 -16 -11 -49 -5 -40 -26 17 -37 116 -23 250 -14 346 24 23 10 42 23 42
31 0 8 3 13 8 12 19 -4 82 38 82 55 0 4 -12 6 -27 3 -16 -2 -38 -5 -51 -5 -19
-1 -22 -5 -17 -23 6 -22 5 -22 -9 -4 -8 10 -17 22 -18 26 -5 12 -88 19 -88 7
0 -7 -4 -7 -12 1 -7 7 -14 11 -17 10 -4 -1 -35 -4 -71 -7z m190 -62 c0 -5 -4
-7 -10 -4 -5 3 -10 1 -10 -4 0 -6 -7 -11 -15 -11 -8 0 -15 7 -15 15 0 9 9 15
25 15 14 0 25 -5 25 -11z"/>
<path d="M1932 4908 c-18 -18 -14 -26 13 -24 28 1 31 8 12 25 -10 8 -17 7 -25
-1z"/>
<path d="M1960 4840 c-8 -5 -11 -12 -7 -16 4 -4 13 -2 19 4 15 15 7 24 -12 12z"/>
<path d="M4098 4368 c7 -7 12 -25 12 -40 0 -15 5 -28 10 -28 6 0 10 5 10 11 0
7 8 17 17 24 15 11 15 15 4 29 -7 9 -25 16 -39 16 -20 0 -23 -3 -14 -12z"/>
<path d="M2290 4244 c0 -11 -6 -13 -19 -9 -11 3 -23 0 -27 -6 -5 -9 -2 -10 9
-6 11 4 17 1 17 -8 0 -24 27 -17 34 8 8 31 7 37 -4 37 -5 0 -10 -7 -10 -16z"/>
<path d="M3988 4180 c-10 -9 -18 -23 -18 -31 0 -9 7 -7 21 8 25 25 22 48 -3
23z"/>
<path d="M2210 4155 c0 -8 -4 -15 -10 -15 -5 0 -10 -7 -10 -15 0 -8 -17 -23
-37 -34 -30 -16 -33 -20 -17 -21 12 0 32 12 45 26 13 14 32 33 41 42 17 15 16
32 -3 32 -5 0 -9 -7 -9 -15z"/>
<path d="M2026 4026 c4 -10 0 -13 -13 -10 -11 3 -28 -5 -43 -21 -20 -22 -22
-28 -10 -35 9 -5 19 -5 27 1 7 6 17 8 22 4 15 -8 53 33 49 53 -2 9 -11 18 -21
20 -12 2 -15 -1 -11 -12z"/>
<path d="M2420 3330 c0 -5 9 -10 20 -10 11 0 20 5 20 10 0 6 -9 10 -20 10 -11
0 -20 -4 -20 -10z"/>
<path d="M2160 2435 c0 -8 5 -15 10 -15 6 0 10 7 10 15 0 8 -4 15 -10 15 -5 0
-10 -7 -10 -15z"/>
<path d="M2760 987 c0 -19 16 -31 24 -18 3 5 -1 14 -9 21 -12 10 -15 10 -15
-3z"/>
<path d="M4720 905 c0 -8 9 -10 25 -7 14 2 25 6 25 7 0 1 -11 5 -25 7 -16 3
-25 1 -25 -7z"/>
<path d="M4706 754 c-3 -8 1 -17 10 -21 22 -8 29 4 11 21 -13 14 -16 14 -21 0z"/>
<path d="M4790 490 c-8 -5 -27 -11 -42 -15 -16 -3 -28 -12 -28 -20 0 -12 5
-12 26 -4 15 5 35 7 44 4 14 -5 18 0 16 20 0 14 -1 25 -1 24 0 0 -7 -4 -15 -9z"/>
<path d="M5992 7511 c-10 -6 -10 -10 2 -20 17 -14 36 -7 36 15 0 15 -18 18
-38 5z"/>
<path d="M5473 7396 c-30 -14 -29 -24 3 -36 39 -15 46 -12 42 17 -3 30 -14 35
-45 19z"/>
<path d="M5735 7041 c-3 -6 -24 -11 -45 -11 -22 0 -45 -6 -52 -14 -11 -11 -15
-11 -25 3 -10 12 -12 13 -13 2 0 -8 -8 -20 -17 -27 -16 -11 -16 -13 9 -24 14
-7 29 -21 31 -31 3 -12 14 -19 30 -19 14 0 37 -6 51 -14 15 -8 59 -14 102 -14
72 -1 75 0 85 25 12 31 6 53 -15 53 -7 0 -17 7 -20 16 -3 8 -10 13 -15 9 -5
-3 -12 -1 -16 5 -3 5 -1 10 4 10 25 0 8 18 -21 23 -18 3 -40 8 -49 12 -10 3
-20 2 -24 -4z"/>
<path d="M6084 6899 c-3 -6 0 -15 7 -20 18 -11 99 -9 99 2 0 5 -7 9 -15 9 -8
0 -15 4 -15 8 0 13 -68 14 -76 1z"/>
<path d="M5504 5655 c-4 -14 -3 -29 0 -33 12 -11 54 -13 61 -2 11 17 32 11 38
-11 5 -18 11 -20 32 -15 16 4 33 2 41 -5 11 -9 20 -8 39 5 28 18 31 31 11 43
-7 4 -16 15 -19 23 -4 12 -6 11 -6 -2 -1 -19 -16 -24 -26 -9 -10 17 -96 25
-105 10 -7 -11 -12 -10 -28 4 -25 23 -30 22 -38 -8z m124 -16 c-2 -6 -8 -10
-13 -10 -5 0 -11 4 -13 10 -2 6 4 11 13 11 9 0 15 -5 13 -11z"/>
<path d="M5420 5658 c0 -4 -12 -5 -27 -2 -22 5 -26 4 -16 -6 6 -7 9 -19 6 -26
-6 -16 13 -19 22 -4 4 6 16 10 27 8 12 -2 26 6 35 19 14 21 13 22 -16 21 -17
-1 -31 -5 -31 -10z"/>
<path d="M5250 5652 c0 -16 69 -27 83 -13 8 8 3 11 -20 11 -17 0 -38 3 -47 6
-9 3 -16 1 -16 -4z"/>
<path d="M5958 5631 c-16 -16 -16 -17 0 -28 24 -14 72 21 54 39 -9 9 -12 9
-12 -1 0 -9 -4 -10 -12 -3 -9 6 -18 4 -30 -7z"/>
<path d="M4780 4845 c0 -14 5 -25 10 -25 6 0 10 11 10 25 0 14 -4 25 -10 25
-5 0 -10 -11 -10 -25z"/>
<path d="M1260 4846 c0 -8 5 -18 10 -21 6 -3 10 1 10 9 0 8 -4 18 -10 21 -5 3
-10 -1 -10 -9z"/>
<path d="M4495 3381 c-5 -9 32 -51 44 -51 3 0 13 5 21 10 12 8 12 10 1 10 -10
0 -11 3 -2 13 6 8 8 17 4 20 -10 10 -61 8 -68 -2z"/>
<path d="M35 3353 c-27 -18 -35 -31 -35 -53 0 -29 0 -29 54 -26 29 2 58 6 64
10 6 3 35 7 65 8 38 2 54 6 54 16 0 16 -14 22 -104 50 l-63 19 -35 -24z"/>
<path d="M355 3305 l-70 -11 50 -23 c28 -12 61 -25 74 -27 13 -3 33 -10 44
-16 11 -5 88 -11 171 -13 127 -2 167 -7 251 -29 68 -19 127 -28 187 -29 l87
-1 -20 -28 c-11 -15 -18 -28 -16 -28 2 0 38 23 78 50 41 28 97 65 124 83 28
19 57 42 65 52 14 17 13 18 -10 11 -14 -4 -47 -7 -75 -8 -27 0 -56 -5 -63 -11
-10 -8 -14 -5 -19 11 -6 23 -13 27 -29 14 -20 -18 -92 -32 -159 -32 -38 0 -95
-1 -125 -2 -30 -1 -82 3 -115 9 -228 43 -298 48 -430 28z"/>
<path d="M4600 3311 c0 -8 -6 -11 -16 -7 -10 4 -14 1 -12 -6 7 -19 25 -20 32
-2 4 9 4 19 1 22 -3 3 -5 0 -5 -7z"/>
<path d="M5085 3090 c4 -6 13 -9 21 -6 8 3 14 1 14 -5 0 -6 5 -7 11 -4 14 9 7
15 -26 21 -18 3 -24 1 -20 -6z"/>
<path d="M5220 3075 c0 -8 7 -15 15 -15 8 0 15 7 15 15 0 8 -7 15 -15 15 -8 0
-15 -7 -15 -15z"/>
<path d="M4820 3038 c0 -9 4 -19 9 -22 4 -3 11 -18 15 -33 3 -17 21 -38 46
-55 32 -22 40 -34 40 -58 0 -18 5 -30 13 -30 8 0 19 -23 27 -52 7 -29 26 -69
41 -89 16 -20 33 -48 38 -63 6 -14 17 -26 24 -26 20 0 47 -33 47 -58 0 -12 6
-22 13 -22 7 0 23 -13 35 -30 18 -24 20 -30 7 -30 -16 0 -20 -17 -7 -37 4 -6
26 -13 49 -16 l42 -4 -24 29 c-14 16 -25 40 -25 54 0 13 -4 24 -10 24 -5 0
-10 12 -10 28 -1 34 -19 58 -53 71 -15 6 -27 16 -27 22 0 6 7 9 15 5 8 -3 15
-1 15 4 0 6 -4 10 -10 10 -5 0 -10 8 -10 19 0 10 -11 44 -25 76 -14 31 -30 80
-36 107 -6 28 -19 58 -28 68 -9 10 -22 26 -30 35 -7 9 -20 14 -28 11 -9 -4
-20 5 -31 24 -9 16 -24 30 -33 30 -9 0 -22 7 -29 15 -17 20 -60 15 -60 -7z"/>
<path d="M5110 2514 c0 -11 32 -44 43 -44 14 0 6 21 -10 27 -10 4 -21 11 -25
17 -6 8 -8 8 -8 0z"/>
<path d="M1170 2371 c0 -5 4 -12 10 -16 9 -6 2 -36 -11 -45 -4 -3 -11 -19 -14
-35 l-7 -30 26 35 c28 37 33 90 9 98 -7 2 -13 -1 -13 -7z"/>
<path d="M5262 2205 c4 -25 31 -27 36 -2 2 9 -1 17 -7 17 -6 0 -11 -6 -11 -12
0 -9 -4 -8 -11 2 -8 12 -10 11 -7 -5z"/>
<path d="M5130 2195 c26 -36 65 -64 87 -65 12 0 31 -12 42 -26 17 -21 30 -27
68 -29 37 -1 48 -6 54 -23 6 -15 14 -19 29 -15 30 8 34 21 8 28 -13 4 -64 27
-115 51 -50 24 -97 44 -104 44 -7 0 -28 12 -48 27 -25 19 -32 21 -21 8z"/>
<path d="M5370 2012 c0 -7 -7 -12 -15 -12 -13 0 -14 -4 -4 -22 12 -23 13 -23
20 6 5 17 6 32 4 35 -3 2 -5 -1 -5 -7z"/>
<path d="M5683 1940 c27 -22 37 -25 37 -12 0 8 -43 32 -57 32 -3 0 6 -9 20
-20z"/>
<path d="M5762 1889 c2 -7 10 -15 17 -17 8 -3 12 1 9 9 -2 7 -10 15 -17 17 -8
3 -12 -1 -9 -9z"/>
<path d="M5820 1864 c0 -11 52 -55 58 -50 3 4 -5 17 -18 31 -23 24 -40 32 -40
19z"/>
<path d="M5830 1785 c0 -8 5 -15 10 -15 6 0 10 7 10 15 0 8 -4 15 -10 15 -5 0
-10 -7 -10 -15z"/>
<path d="M5940 1764 c0 -17 -23 -44 -38 -44 -13 0 -54 -69 -47 -80 3 -4 -2
-13 -10 -20 -8 -7 -15 -21 -15 -31 0 -11 -7 -19 -16 -19 -12 0 -15 -7 -12 -28
2 -17 -3 -35 -14 -47 -10 -10 -15 -21 -12 -24 4 -3 9 0 11 7 3 6 14 12 26 12
23 0 26 4 68 91 14 30 33 60 42 67 9 7 19 27 22 43 4 16 16 34 27 40 19 10 19
11 2 30 -21 23 -34 24 -34 3z"/>
<path d="M5810 1740 c0 -5 7 -10 15 -10 8 0 15 5 15 10 0 6 -7 10 -15 10 -8 0
-15 -4 -15 -10z"/>
<path d="M6013 1690 c-3 -17 -14 -35 -24 -41 -11 -5 -19 -16 -19 -24 0 -8 -8
-23 -17 -34 -10 -10 -37 -51 -61 -92 -48 -84 -65 -112 -72 -119 -12 -12 -28
-49 -45 -105 -10 -33 -22 -64 -27 -69 -13 -16 -10 -58 5 -54 16 6 57 78 57
101 0 11 9 32 20 47 11 16 27 44 35 62 9 18 19 40 24 48 4 8 19 38 32 65 13
28 34 65 47 83 13 18 32 53 43 78 11 25 27 48 34 50 17 7 8 34 -11 34 -8 0
-17 -14 -21 -30z"/>
<path d="M1038 1686 c-13 -9 -44 -12 -113 -9 l-95 4 -1 -43 c-1 -24 -1 -54 0
-68 1 -22 -31 -162 -59 -255 -5 -16 -21 -77 -35 -135 -15 -58 -31 -110 -36
-116 -4 -5 -6 -20 -2 -32 3 -12 0 -29 -7 -37 -7 -9 -10 -27 -7 -44 3 -16 3
-32 -1 -36 -8 -7 -10 -34 -15 -155 -2 -47 -6 -94 -10 -105 -4 -11 -13 -83 -22
-160 -8 -77 -19 -153 -24 -170 -5 -16 -14 -70 -21 -120 -7 -49 -16 -105 -21
-124 -4 -19 -6 -38 -3 -43 3 -5 0 -16 -7 -24 -11 -13 -8 -15 26 -12 38 3 39 4
56 61 9 32 21 63 26 70 18 23 37 130 47 254 3 29 8 57 11 64 4 6 9 34 10 62 2
29 10 83 18 121 9 38 14 73 11 77 -2 4 0 11 6 14 6 4 8 16 5 26 -4 11 -3 25 2
32 16 22 34 87 28 97 -4 6 -1 18 6 26 6 8 13 25 14 37 3 53 18 128 26 133 5 3
9 20 9 39 0 22 6 38 18 44 12 7 14 13 6 21 -8 8 -8 21 2 48 18 49 17 81 -1 88
-8 4 -15 14 -15 23 0 13 2 13 9 2 6 -9 18 -11 39 -6 18 4 33 2 37 -5 10 -15
35 22 47 69 5 20 22 92 36 161 25 114 29 125 52 131 24 7 24 7 -5 8 -16 0 -38
-6 -47 -13z"/>
<path d="M6174 1362 c-5 -4 -22 -32 -36 -62 -72 -154 -98 -212 -98 -224 0 -8
-7 -19 -15 -26 -8 -7 -15 -18 -15 -24 0 -7 -8 -21 -18 -32 -10 -10 -44 -72
-76 -136 -31 -65 -61 -120 -67 -123 -5 -4 -9 -15 -9 -25 0 -14 -9 -20 -32 -22
-29 -4 -30 -5 -13 -13 11 -5 24 -14 28 -22 11 -19 27 -16 28 5 0 9 9 31 20 47
10 17 22 37 25 45 4 8 22 47 40 86 18 39 38 82 44 95 5 13 14 31 18 39 5 8 17
29 26 45 9 17 24 46 32 65 9 19 43 90 76 158 58 116 66 140 42 124z"/>
<path d="M1225 1280 c-8 -13 -1 -24 14 -19 6 3 7 10 2 18 -6 10 -10 10 -16 1z"/>
<path d="M952 1243 c-16 -44 -23 -83 -14 -83 7 0 33 101 27 108 -1 1 -7 -10
-13 -25z"/>
<path d="M1170 1228 c0 -6 -7 -20 -17 -30 -22 -25 -13 -30 25 -16 34 13 40 26
20 46 -15 15 -28 15 -28 0z"/>
<path d="M4513 1158 c2 -7 12 -13 22 -13 10 0 20 6 23 13 2 7 -6 12 -23 12
-17 0 -25 -5 -22 -12z"/>
<path d="M1102 1087 c-18 -18 -32 -40 -32 -49 0 -8 -6 -21 -14 -27 -8 -6 -17
-32 -21 -56 -3 -25 -10 -45 -16 -45 -5 0 -9 -10 -9 -23 0 -12 -6 -31 -13 -42
-7 -11 -19 -45 -26 -75 -8 -30 -20 -68 -27 -85 -19 -46 -90 -271 -112 -355
-20 -73 -77 -278 -88 -312 -4 -15 1 -18 30 -18 38 0 40 3 51 84 4 27 10 56 15
65 5 9 21 52 35 96 15 44 31 89 35 100 20 47 31 97 26 111 -3 8 -2 13 2 10 5
-3 21 23 36 57 16 34 37 79 47 100 10 22 19 48 19 58 0 11 11 42 25 69 14 27
25 54 25 60 0 6 12 27 27 46 14 20 27 43 28 53 1 22 54 81 73 81 12 0 12 3 2
15 -10 12 -10 15 4 15 9 0 16 -4 16 -10 0 -5 4 -10 8 -10 4 0 8 16 8 35 0 21
-5 35 -13 35 -6 0 -23 11 -37 25 -34 34 -66 32 -104 -8z"/>
<path d="M6170 1058 c-29 -46 -130 -250 -130 -264 0 -8 -4 -22 -9 -32 -16 -28
-53 -164 -47 -170 8 -7 5 -13 76 133 91 187 91 188 112 211 15 17 18 34 16 83
-3 58 -4 60 -18 39z"/>
<path d="M5750 990 c0 -10 -6 -23 -14 -27 -20 -11 -25 -65 -7 -71 10 -3 12 2
8 19 -3 14 0 32 9 43 8 11 14 16 14 10 0 -5 5 -1 11 9 11 18 5 37 -12 37 -5 0
-9 -9 -9 -20z"/>
<path d="M4376 965 c-3 -9 0 -15 9 -15 8 0 15 7 15 15 0 8 -4 15 -9 15 -5 0
-11 -7 -15 -15z"/>
<path d="M4270 959 c0 -4 5 -11 10 -14 6 -3 10 -16 10 -28 0 -24 14 -13 24 19
5 17 2 22 -19 26 -14 3 -25 2 -25 -3z"/>
<path d="M5890 945 c0 -9 9 -15 21 -15 18 0 19 2 9 15 -7 8 -16 15 -21 15 -5
0 -9 -7 -9 -15z"/>
<path d="M4427 916 c-4 -9 -2 -18 4 -21 14 -9 51 5 46 18 -6 18 -44 20 -50 3z"/>
<path d="M4410 861 c0 -23 31 -44 54 -35 29 11 22 19 -46 52 -5 2 -8 -6 -8
-17z"/>
<path d="M4182 809 c2 -7 10 -15 17 -17 8 -3 12 1 9 9 -2 7 -10 15 -17 17 -8
3 -12 -1 -9 -9z"/>
<path d="M4314 762 c-9 -5 -8 -10 1 -19 10 -9 14 -8 18 8 5 20 0 24 -19 11z"/>
<path d="M3999 664 c-12 -14 -11 -16 5 -13 11 2 21 10 24 17 5 17 -13 15 -29
-4z"/>
<path d="M4130 621 c0 -5 7 -16 15 -25 8 -8 15 -19 15 -25 0 -6 6 -11 13 -11
8 0 7 -4 -3 -10 -13 -8 -13 -10 2 -10 20 0 36 22 20 28 -7 2 -12 10 -12 18 0
8 -4 14 -9 14 -5 0 -17 7 -25 16 -9 8 -16 11 -16 5z"/>
<path d="M5592 605 c-7 -15 -8 -27 -2 -30 6 -4 10 -1 10 4 0 6 11 11 23 11 32
0 40 10 19 26 -25 20 -37 17 -50 -11z"/>
<path d="M6148 622 c8 -5 10 -16 5 -28 -7 -19 -59 -74 -70 -74 -12 0 -53 -56
-53 -72 0 -10 -4 -18 -10 -18 -16 0 -12 -22 6 -35 14 -10 12 -16 -20 -51 -20
-21 -36 -42 -36 -46 0 -15 30 -8 49 11 10 10 28 22 40 26 13 4 21 15 21 28 0
12 9 37 20 55 11 18 20 41 20 52 0 11 5 20 10 20 6 0 15 10 21 23 5 12 16 33
24 47 8 14 15 35 15 48 0 17 -6 22 -27 22 -19 0 -24 -3 -15 -8z"/>
<path d="M5801 606 c-8 -10 -9 -16 -1 -21 5 -3 13 1 16 10 9 22 -1 29 -15 11z"/>
<path d="M5669 573 c-1 -5 -1 -11 0 -15 0 -5 -5 -8 -11 -8 -7 0 -1 -11 15 -24
15 -13 27 -30 27 -38 0 -9 7 -21 15 -28 8 -7 15 -25 15 -40 0 -15 -7 -33 -15
-40 -8 -7 -15 -16 -15 -21 0 -15 30 -10 36 6 4 8 12 15 20 15 19 0 18 16 -2
24 -12 5 -14 9 -5 20 6 7 9 20 5 29 -3 8 -1 18 5 22 7 3 11 -2 11 -14 0 -12 4
-21 9 -21 5 0 8 23 8 50 -1 50 -19 66 -25 22 -4 -25 -6 -26 -33 -12 -10 6 -19
18 -19 28 -1 28 -38 68 -41 45z"/>
<path d="M300 512 c0 -12 34 -42 46 -42 5 0 1 5 -8 11 -10 5 -18 17 -18 24 0
8 -4 15 -10 15 -5 0 -10 -4 -10 -8z"/>
<path d="M3895 480 c-10 -11 -15 -20 -11 -20 11 0 39 30 34 36 -3 2 -13 -5
-23 -16z"/>
<path d="M2833 457 c-42 -30 -57 -67 -28 -67 8 0 15 5 15 10 0 6 11 10 25 10
17 0 29 9 40 30 15 28 13 51 -3 49 -4 0 -26 -15 -49 -32z"/>
<path d="M4192 478 c2 -6 10 -14 16 -16 7 -2 10 2 6 12 -7 18 -28 22 -22 4z"/>
<path d="M4306 475 c-11 -8 -17 -18 -14 -21 11 -10 48 7 48 22 0 18 -10 17
-34 -1z"/>
<path d="M497 409 c-9 -6 -15 -14 -12 -19 3 -5 0 -12 -6 -15 -5 -4 -10 -30 -9
-59 4 -112 1 -130 -15 -116 -8 7 -15 20 -15 29 -1 19 -34 61 -49 61 -14 0 -14
-17 -1 -25 6 -3 10 -20 10 -36 0 -16 7 -75 17 -129 16 -97 17 -100 43 -100 20
0 28 7 37 32 15 41 33 174 33 235 0 27 9 64 22 90 19 38 20 46 8 53 -19 12
-41 12 -63 -1z"/>
<path d="M4212 378 c3 -25 58 -47 58 -23 0 7 -11 16 -25 19 -14 4 -23 11 -20
16 3 6 1 10 -5 10 -6 0 -10 -10 -8 -22z"/>
<path d="M382 357 l-23 -24 21 -6 c12 -3 19 -10 15 -16 -3 -6 -2 -11 4 -11 15
0 18 12 12 48 l-6 34 -23 -25z"/>
<path d="M4320 270 c0 -19 3 -21 12 -12 9 9 9 15 0 24 -9 9 -12 7 -12 -12z"/>
<path d="M2441 189 c-23 -24 -41 -38 -41 -30 0 8 -2 12 -5 9 -9 -8 6 -38 16
-32 22 13 6 -22 -18 -42 -16 -12 -25 -25 -21 -29 8 -8 76 44 77 58 1 5 8 16
17 24 12 13 13 18 3 24 -10 6 -9 12 6 28 10 12 16 24 12 27 -3 3 -24 -13 -46
-37z"/>
<path d="M1 125 c0 -21 10 -42 34 -70 42 -49 47 -29 6 23 -16 20 -31 46 -34
57 -3 14 -5 11 -6 -10z"/>
<path d="M4340 130 c0 -11 5 -20 10 -20 6 0 10 9 10 20 0 11 -4 20 -10 20 -5
0 -10 -9 -10 -20z"/>
<path d="M3126 94 c-4 -10 -1 -14 6 -12 15 5 23 28 10 28 -5 0 -13 -7 -16 -16z"/>
<path d="M191 56 c-59 -46 -55 -56 24 -56 62 0 66 2 76 27 5 14 8 32 5 39 -7
19 -75 12 -105 -10z"/>
<path d="M2791 42 c-14 -34 -9 -54 10 -35 6 6 9 23 7 39 l-3 29 -14 -33z"/>
<path d="M3057 50 c-13 -16 -14 -20 -3 -20 8 0 17 7 20 16 9 25 2 26 -17 4z"/>
<path d="M4827 33 c-13 -12 -7 -33 8 -33 8 0 15 9 15 20 0 20 -11 26 -23 13z"/>
<path d="M6132 26 c-39 -22 -37 -26 11 -26 40 0 47 3 47 20 0 23 -22 25 -58 6z"/>
</g>
</svg>
